<?xml version="1.0" encoding="utf-8"?>
<!-- Generator: Adobe Illustrator 22.0.0, SVG Export Plug-In . SVG Version: 6.00 Build 0)  -->
<svg version="1.1" id="Capa_1" xmlns="http://www.w3.org/2000/svg" xmlns:xlink="http://www.w3.org/1999/xlink" x="0px" y="0px"
	 viewBox="0 0 341.4 166.4" style="enable-background:new 0 0 341.4 166.4;" xml:space="preserve">
<style type="text/css">
	.st0{fill:#FFFFFF;}
</style>
<g>
	<path class="st0" d="M86.1,127.8v5.3h7.2v0.9h-7.2v5.8h-0.9v-12.7h9v0.9H86.1z"/>
	<path class="st0" d="M115.8,135.8c-0.3,0.8-0.7,1.5-1.3,2.1c-0.6,0.6-1.2,1.1-2,1.4c-0.8,0.4-1.7,0.5-2.6,0.5c-1,0-1.8-0.2-2.6-0.5
		c-0.8-0.4-1.5-0.8-2-1.4c-0.6-0.6-1-1.3-1.3-2.1c-0.3-0.8-0.5-1.6-0.5-2.5v0c0-0.9,0.2-1.7,0.5-2.5c0.3-0.8,0.7-1.5,1.3-2.1
		c0.6-0.6,1.2-1.1,2-1.4c0.8-0.4,1.7-0.5,2.6-0.5c1,0,1.8,0.2,2.6,0.5c0.8,0.4,1.5,0.8,2,1.4c0.6,0.6,1,1.3,1.3,2.1s0.5,1.6,0.5,2.5
		c0,0,0,0,0,0C116.3,134.2,116.1,135,115.8,135.8z M115.3,133.3c0-0.8-0.1-1.5-0.4-2.2s-0.6-1.3-1.1-1.8c-0.5-0.5-1.1-0.9-1.7-1.2
		c-0.7-0.3-1.4-0.5-2.2-0.5s-1.5,0.1-2.2,0.4s-1.2,0.7-1.7,1.2s-0.9,1.1-1.1,1.8s-0.4,1.4-0.4,2.2v0c0,0.8,0.1,1.5,0.4,2.2
		s0.6,1.3,1.1,1.8c0.5,0.5,1.1,0.9,1.7,1.2c0.7,0.3,1.4,0.5,2.2,0.5c0.8,0,1.5-0.1,2.2-0.4c0.7-0.3,1.2-0.7,1.7-1.2s0.9-1.1,1.1-1.8
		C115.2,134.9,115.3,134.1,115.3,133.3L115.3,133.3z"/>
	<path class="st0" d="M130.2,127.8v11.9h-0.9v-11.9h-4.4v-0.9h9.8v0.9H130.2z"/>
	<path class="st0" d="M156.6,135.8c-0.3,0.8-0.7,1.5-1.3,2.1c-0.6,0.6-1.2,1.1-2,1.4s-1.7,0.5-2.6,0.5c-1,0-1.8-0.2-2.6-0.5
		s-1.5-0.8-2-1.4c-0.6-0.6-1-1.3-1.3-2.1c-0.3-0.8-0.5-1.6-0.5-2.5v0c0-0.9,0.2-1.7,0.5-2.5c0.3-0.8,0.7-1.5,1.3-2.1
		c0.6-0.6,1.2-1.1,2-1.4c0.8-0.4,1.7-0.5,2.6-0.5c1,0,1.8,0.2,2.6,0.5s1.5,0.8,2,1.4c0.6,0.6,1,1.3,1.3,2.1c0.3,0.8,0.5,1.6,0.5,2.5
		c0,0,0,0,0,0C157.1,134.2,156.9,135,156.6,135.8z M156.1,133.3c0-0.8-0.1-1.5-0.4-2.2c-0.3-0.7-0.6-1.3-1.1-1.8
		c-0.5-0.5-1.1-0.9-1.7-1.2c-0.7-0.3-1.4-0.5-2.2-0.5c-0.8,0-1.5,0.1-2.2,0.4c-0.7,0.3-1.2,0.7-1.7,1.2c-0.5,0.5-0.9,1.1-1.1,1.8
		c-0.3,0.7-0.4,1.4-0.4,2.2v0c0,0.8,0.1,1.5,0.4,2.2c0.3,0.7,0.6,1.3,1.1,1.8c0.5,0.5,1.1,0.9,1.7,1.2c0.7,0.3,1.4,0.5,2.2,0.5
		c0.8,0,1.5-0.1,2.2-0.4c0.7-0.3,1.2-0.7,1.7-1.2c0.5-0.5,0.9-1.1,1.1-1.8C156,134.9,156.1,134.1,156.1,133.3L156.1,133.3z"/>
	<path class="st0" d="M176.3,139.3c-0.9,0.4-1.8,0.6-2.8,0.6c-1,0-1.9-0.2-2.7-0.5c-0.8-0.3-1.5-0.8-2-1.4c-0.5-0.6-1-1.3-1.3-2.1
		c-0.3-0.8-0.4-1.6-0.4-2.5v0c0-0.9,0.1-1.7,0.4-2.5c0.3-0.8,0.7-1.5,1.3-2.1c0.6-0.6,1.2-1.1,2-1.5c0.8-0.4,1.6-0.5,2.6-0.5
		c0.5,0,1,0,1.4,0.1c0.4,0.1,0.8,0.2,1.2,0.3c0.4,0.1,0.7,0.3,1.1,0.5c0.3,0.2,0.7,0.4,1,0.7l-0.6,0.7c-0.5-0.4-1.1-0.8-1.7-1.1
		s-1.4-0.4-2.4-0.4c-0.8,0-1.5,0.2-2.1,0.5s-1.2,0.7-1.7,1.2s-0.8,1.1-1.1,1.8s-0.4,1.4-0.4,2.2v0c0,0.8,0.1,1.6,0.4,2.3
		c0.2,0.7,0.6,1.3,1.1,1.8c0.5,0.5,1,0.9,1.7,1.2c0.7,0.3,1.4,0.4,2.3,0.4c0.4,0,0.8,0,1.2-0.1c0.4-0.1,0.8-0.2,1.1-0.3
		s0.7-0.3,1-0.5c0.3-0.2,0.6-0.4,0.8-0.6v-3.6h-4.3v-0.9h5.2v4.9C177.8,138.5,177.1,138.9,176.3,139.3z"/>
	<path class="st0" d="M198.3,139.7l-4.1-5.3h-4.2v5.3h-0.9v-12.7h5.3c0.7,0,1.3,0.1,1.9,0.3c0.6,0.2,1,0.4,1.4,0.7
		c0.4,0.3,0.7,0.7,0.9,1.1c0.2,0.4,0.3,0.9,0.3,1.5v0c0,0.5-0.1,1-0.3,1.4c-0.2,0.4-0.4,0.8-0.8,1.1s-0.7,0.5-1.2,0.7
		c-0.5,0.2-0.9,0.3-1.5,0.4l4.2,5.4H198.3z M198.1,130.6c0-0.9-0.3-1.5-1-2c-0.6-0.5-1.5-0.7-2.7-0.7h-4.3v5.7h4.3
		c0.5,0,1-0.1,1.5-0.2c0.5-0.1,0.8-0.3,1.2-0.6c0.3-0.2,0.6-0.6,0.8-0.9C198,131.5,198.1,131.1,198.1,130.6L198.1,130.6z"/>
	<path class="st0" d="M220.2,139.7l-1.6-3.6H211l-1.6,3.6h-1l5.9-12.8h0.9l5.9,12.8H220.2z M214.8,127.9l-3.4,7.4h6.7L214.8,127.9z"
		/>
	<path class="st0" d="M232.1,127.8v5.3h7.2v0.9h-7.2v5.8h-0.9v-12.7h9v0.9H232.1z"/>
	<path class="st0" d="M250.5,139.7v-12.7h0.9v12.7H250.5z M250.7,125.8l1.6-2.4l1.1,0.5l-1.9,1.9H250.7z"/>
	<path class="st0" d="M273.3,139.7l-1.6-3.6h-7.5l-1.6,3.6h-1l5.9-12.8h0.9l5.9,12.8H273.3z M267.9,127.9l-3.4,7.4h6.7L267.9,127.9z
		"/>
</g>
<g>
	<path class="st0" d="M60.5,87.2L49.2,72.9v14.3H48V71.1h1.1l11.1,14v-14h1.2v16.1H60.5z"/>
	<path class="st0" d="M71,87.2V71.1h1.2v16.1H71z"/>
	<path class="st0" d="M94.1,85.8c-0.5,0.3-0.9,0.6-1.4,0.9c-0.5,0.2-1.1,0.4-1.7,0.6c-0.6,0.1-1.3,0.2-2,0.2c-1.1,0-2.2-0.2-3.2-0.6
		c-1-0.4-1.8-1-2.5-1.8c-0.7-0.7-1.3-1.6-1.7-2.6c-0.4-1-0.6-2.1-0.6-3.2v0c0-1.1,0.2-2.2,0.6-3.2c0.4-1,1-1.9,1.7-2.7
		c0.7-0.8,1.6-1.4,2.5-1.8c1-0.4,2.1-0.7,3.2-0.7c0.7,0,1.4,0.1,2,0.2c0.6,0.1,1.1,0.3,1.6,0.5c0.5,0.2,1,0.5,1.4,0.8
		c0.4,0.3,0.9,0.7,1.3,1l-0.9,0.9c-0.4-0.3-0.7-0.7-1.1-0.9c-0.4-0.3-0.8-0.5-1.2-0.7c-0.4-0.2-0.9-0.4-1.4-0.5
		c-0.5-0.1-1.1-0.2-1.7-0.2c-1,0-1.9,0.2-2.7,0.6s-1.5,0.9-2.2,1.5c-0.6,0.7-1.1,1.4-1.4,2.3c-0.3,0.9-0.5,1.8-0.5,2.8v0
		c0,1,0.2,2,0.5,2.8c0.4,0.9,0.8,1.6,1.4,2.3c0.6,0.7,1.3,1.2,2.2,1.5s1.7,0.6,2.7,0.6c1.2,0,2.2-0.2,3-0.6c0.9-0.4,1.7-1,2.5-1.9
		l0.8,0.8C95,85.1,94.5,85.4,94.1,85.8z"/>
	<path class="st0" d="M117.7,82.3c-0.4,1-0.9,1.9-1.6,2.7c-0.7,0.8-1.6,1.4-2.6,1.8s-2.1,0.7-3.3,0.7c-1.2,0-2.3-0.2-3.3-0.7
		c-1-0.5-1.8-1.1-2.5-1.8s-1.3-1.6-1.6-2.6c-0.4-1-0.6-2-0.6-3.2v0c0-1.1,0.2-2.2,0.6-3.2c0.4-1,0.9-1.9,1.6-2.7
		c0.7-0.8,1.6-1.4,2.6-1.8c1-0.5,2.1-0.7,3.3-0.7c1.2,0,2.3,0.2,3.3,0.7c1,0.5,1.8,1.1,2.6,1.8c0.7,0.8,1.2,1.6,1.6,2.6
		c0.4,1,0.6,2,0.6,3.2c0,0,0,0,0,0C118.3,80.2,118.1,81.3,117.7,82.3z M117.1,79.1c0-1-0.2-1.9-0.5-2.8s-0.8-1.6-1.4-2.3
		c-0.6-0.7-1.3-1.2-2.2-1.6c-0.8-0.4-1.8-0.6-2.8-0.6c-1,0-1.9,0.2-2.7,0.6s-1.6,0.9-2.2,1.5c-0.6,0.7-1.1,1.4-1.4,2.3
		c-0.3,0.9-0.5,1.8-0.5,2.8v0c0,1,0.2,1.9,0.5,2.8c0.3,0.9,0.8,1.6,1.4,2.3c0.6,0.7,1.3,1.2,2.2,1.6c0.8,0.4,1.8,0.6,2.8,0.6
		c1,0,1.9-0.2,2.7-0.6s1.6-0.9,2.2-1.5c0.6-0.7,1.1-1.4,1.4-2.3C116.9,81.1,117.1,80.2,117.1,79.1L117.1,79.1z"/>
	<path class="st0" d="M127,87.2V71.1h1.2v15h9.5v1.1H127z"/>
	<path class="st0" d="M145.8,87.2V71.1h11.5v1.1H147v6.4h9.2v1.1H147v6.5h10.4v1.1H145.8z"/>
	<path class="st0" d="M223.1,78.3c-0.3,0.6-0.8,1.2-1.4,1.6c-0.6,0.4-1.2,0.8-2,1c-0.8,0.2-1.6,0.3-2.4,0.3H213v6h-1.2V71.1h5.8
		c0.9,0,1.7,0.1,2.4,0.3c0.7,0.2,1.4,0.5,1.9,1c0.5,0.4,0.9,0.9,1.2,1.5c0.3,0.6,0.4,1.3,0.4,2.1v0
		C223.6,76.9,223.5,77.6,223.1,78.3z M222.4,76.1c0-0.6-0.1-1.2-0.4-1.7s-0.6-0.9-1-1.2c-0.4-0.3-0.9-0.6-1.5-0.7
		c-0.6-0.2-1.3-0.3-2-0.3H213v7.9h4.4c0.8,0,1.4-0.1,2-0.3c0.6-0.2,1.1-0.5,1.6-0.8c0.4-0.3,0.8-0.8,1-1.3
		C222.3,77.3,222.4,76.7,222.4,76.1L222.4,76.1z"/>
	<path class="st0" d="M243.6,87.2l-2-4.5h-9.5l-2,4.5h-1.2l7.5-16.2h1.2l7.5,16.2H243.6z M236.8,72.3l-4.3,9.3h8.5L236.8,72.3z"/>
	<path class="st0" d="M256.5,72.1v15h-1.2v-15h-5.6v-1.1h12.4v1.1H256.5z"/>
	<path class="st0" d="M276,72.1v15h-1.2v-15h-5.6v-1.1h12.4v1.1H276z"/>
	<path class="st0" d="M290,87.2V71.1h1.2v16.1H290z"/>
</g>
<path class="st0" d="M292.2,41c-0.3,3.1-1.2,5.4-2.9,7.9c-12,16.2-29.5,11.8-48.5,10.2c-16.5-1.4-24.3-2.9-36.9,0.6
	c0.2-0.8,0.2-1.6,0.2-2.4c0-0.1,0-0.1,0-0.2c0-0.4,0-0.8-0.1-1.2c0-0.2-0.1-0.4-0.1-0.5c0,0,0,0,0,0c0-0.2-0.1-0.3-0.1-0.5
	c0,0,0,0,0,0c0-0.2-0.1-0.3-0.2-0.5c0,0,0,0,0,0c-0.1-0.1-0.1-0.3-0.2-0.4c0,0,0,0,0,0c-0.1-0.1-0.1-0.3-0.2-0.4c0,0,0,0,0,0
	c-0.1-0.1-0.2-0.2-0.3-0.4c0,0,0,0,0,0c-2.1-2.6-6.3-2.1-9.5,0.8c-0.5,0.5-1,1-1.5,1.5c0,0,0,0,0,0c-0.2,0.2-0.4,0.4-0.5,0.6
	c0,0-0.1,0.1-0.1,0.2c-0.2,0.2-0.3,0.4-0.5,0.6c0,0-0.1,0.1-0.1,0.1c-0.5,0.6-0.9,1.2-1.3,1.8c-0.1,0.1-0.2,0.3-0.3,0.4
	c-0.1,0.1-0.2,0.3-0.3,0.4c-0.1,0.2-0.2,0.4-0.3,0.5c-0.1,0.1-0.1,0.2-0.2,0.3c-0.2,0.3-0.4,0.6-0.5,0.9l1.5-4.8
	c1.5-4.8-3.8-4.4-3.8-4.3l-0.7,2.5c0,0,0,0.1,0,0.1c-1.8,2-3,4.2-4.8,5.3c-0.7,0.5-1.3,0.7-1.8,0.3c-0.3-0.3-0.5-0.9-0.6-1.9
	c0,0,0,0,0,0c0-0.1,0-0.3,0-0.4c0-0.1,0-0.1,0-0.2c0-0.2,0-0.4,0.1-0.6c0.8-7.2,5.9-16.7,6.3-23.6c0.3-7.6-5.5-10.4-9.6-2.5
	c-2.3,4.9-4.9,10.9-7,15.9c0.4-1.6,2.5-10.1,2.8-12.9c0.4-5.1-4-3.1-4.1-3.1c-9.1,12.3-24.6,9.6-46.7,7c-21.5-2.6-30.1-5.2-40.6,6
	c-2.8,2.8-5.2,7-5.7,11.2c0,0.6,0.9,0.7,1,0.1c0.4-2.8,1.2-4.9,2.8-7.1c11.2-14.3,22.9-9.7,40-7.8c22.3,2.5,38.4,5.2,48.9-7.6
	c-0.4,2.7-1.2,5.9-1.8,8.8c-0.4,1.9-0.7,3.6-0.8,4.8c-0.1,2.5,0.6,5.6,3.8,3.9c2.5-5.7,5.5-13.4,8.2-18.8c3-5.9,5.3-3.6,4.2,2
	c-1.7,8.9-5.2,16.2-4.8,23.7c0,0.3,0,0.6,0.1,0.8c0,0,0,0.1,0,0.1c0.3,1.9,1,3.1,1.9,3.6c1.1,0.7,2.5,0.5,3.8-0.4
	c1.3-1.1,2.4-2.5,3.6-3.9c-0.3,1-0.6,2.1-0.8,3.1c-1.8,6.7-3.4,13-5.1,20.3c-2.3,9.8-5.2,19.1-10.1,24.6c-0.9,1-1.8,1.8-2.7,2.3
	c-4.3,2.5-8.1-1.6-9-5.6c-0.2-0.7-1.3-0.5-1.1,0.2c1.1,5,5.8,9,11.2,7.7c2-0.5,4.1-1.7,6-3.8c7.5-8.3,10.9-26.9,14.4-41.1
	c0.2-0.3,0.4-0.7,0.5-1c0.1-0.3,0.3-0.5,0.4-0.8c0-0.1,0.1-0.1,0.1-0.2c0.2-0.3,0.3-0.6,0.5-0.9c0,0,0-0.1,0.1-0.1
	c0.1-0.3,0.3-0.5,0.4-0.7c0-0.1,0.1-0.1,0.1-0.2c0.1-0.3,0.3-0.5,0.5-0.8c0,0,0-0.1,0.1-0.1c0.2-0.3,0.3-0.6,0.5-0.8
	c0-0.1,0.1-0.1,0.1-0.2c0.1-0.2,0.3-0.4,0.4-0.7c0-0.1,0.1-0.1,0.1-0.2c0.2-0.3,0.4-0.5,0.6-0.8c0.8-1,1.7-2,2.8-2.9
	c1.7-1.5,4.4-3.1,5.1,0.4c0.3,1.9,0,4.1-0.6,6.3c-3.4,1.5-6.4,3.6-8.8,6.2c-0.5,0.6-0.9,1.1-1.2,1.7c0,0,0,0,0,0
	c-3.1,2.8-1,6.2,3.2,5.9c0.7,0,1.3-0.2,2-0.4c0,0,0,0,0-0.1c0.6-0.2,1.3-0.5,2-0.9c4-2.5,6.6-8,7.8-12.4c11.7-2.9,18.6-1.3,34.7,0.2
	c23.9,2.3,38,4.4,49.3-8.2c3-3.2,5.6-7.9,5.9-12.6C293.4,40.4,292.3,40.3,292.2,41z M195.6,71.2c0,0,0-0.1,0-0.1
	c-0.4,0.5-0.9,1-1.4,1.4c-2.4,1.7-3.6-0.1-2.2-2.7c0.7-0.4,1.6-0.8,2.8-1.1c-0.3-0.3-0.6-0.6-0.8-1c-0.2,0.1-0.4,0.1-0.6,0.2
	c1.9-1.8,4-3.2,6.5-4.3C199,65.9,197.6,69,195.6,71.2z"/>
<g>
	<g>
		<path class="st0" d="M597.6,71.6c0.2,1,0.2,2,0.1,1.6c0.4,2.1,0.3,2.2,0.5,2.4c0.2,1.4,0.2,2.8-0.1,1.3c0,0,0.1,1,0.2,2
			c0.1,0.5,0.1,1,0.1,1.4c0,0.4,0,0.6,0,0.6s0-0.6,0-1.2c0-0.3,0-0.6,0-0.8c0-0.2,0-0.4,0-0.4c0.1,0.2,0.1,0.5,0.1,0.9
			c0,0.4,0,0.9,0,1.4c0,1,0,1.9,0.2,2.3c0,0,0-1.1-0.1-2.1c0-0.5,0-1.1,0-1.5c0-0.2,0-0.4,0-0.5c0-0.1,0-0.2,0-0.2l0.1,0.2
			c-0.2-1-0.3-2.9-0.3-3.5c0,0.1,0.1,0,0.2,0.8c0-0.6-0.1-1.2-0.2-1.6c-0.1-0.4-0.1-0.7-0.2-0.9c-0.1-0.4-0.2-0.6-0.2-0.7
			c-0.1-0.1-0.1-0.2-0.2-0.5c0-0.2-0.1-0.4-0.2-0.7c-0.1-0.3-0.2-0.7-0.3-1.2C597.5,70.9,597.5,71.2,597.6,71.6z"/>
		<path class="st0" d="M597.3,67.2l-0.7-1.7c0,0,0-0.2-0.1-0.5c-0.1-0.3-0.1-0.7-0.2-1c-0.2-0.7-0.4-1.5-0.4-1.5
			c-0.1,0-0.8-2.1-0.5-0.6c0.1,0.3,0.3,0.8,0.4,1.3c-0.1-0.1-0.4-1.1-0.7-1.9c-0.3-0.8-0.5-1.5-0.5-1c0.2,0.6,0.4,1,0.5,1.4
			c0.1,0.4,0.2,0.7,0.3,1c0.2,0.5,0.3,1,0.6,1.7c0.3,1.1,0.4,2,0.6,2.8c0.1,0.4,0.1,0.7,0.2,1.1c0,0.3,0.1,0.6,0.1,0.9
			c0.1,0.6,0.3,0.7,0.5,1.5c0-0.2-0.1-0.3-0.1-0.6l0.3-0.1c-0.2-0.7-0.3-1.3-0.4-2.1c0,0,0,0.1,0,0.1c0,0.1,0.1,0.2,0.1,0.4
			c0.1,0.3,0.2,0.7,0.3,1.2c0.2,0.9,0.5,1.7,0.5,1.7c0-0.6-0.1-1.7-0.3-2.9c-0.2-1.2-0.5-2.4-0.6-3.1
			C597.3,66.9,596.8,63.9,597.3,67.2z"/>
		<path class="st0" d="M597.4,70.5C597.4,70.5,597.4,70.6,597.4,70.5C597.4,70.6,597.4,70.5,597.4,70.5z"/>
		<path class="st0" d="M466.1,124.4c0.4,0.6,0.6,0.7,0.7,0.8c0,0-0.3-0.4-0.7-1c-0.2-0.3-0.5-0.7-0.8-1.1c-0.3-0.4-0.5-0.8-0.8-1.3
			c-0.6-0.9-1.1-1.7-1.5-2.4c-0.4-0.7-0.6-1.1-0.6-1.1c0.1,0.3,1.2,2.4,0.3,1c0.1,0.3,0.5,1,0.9,1.5c0.4,0.6,0.8,1,0.9,1.1l-0.4-0.4
			c0.6,0.8,1,1.5,1.1,1.8c0.2,0.4,0.1,0.4-0.3,0c0,0,0.1,0.1,0.1,0.1s0.9,1,1.8,2c0.4,0.5,0.9,1,1.3,1.3c0.4,0.4,0.6,0.6,0.6,0.6
			c-0.6-0.8-0.9-1-1.2-1.3C467.1,125.7,466.8,125.4,466.1,124.4z"/>
		<path class="st0" d="M596,95.1c-0.2,1.1-0.2,1.2-0.1,1.1C595.9,95.8,595.9,95.4,596,95.1z"/>
		<path class="st0" d="M469.4,128.2c0,0,0.3,0.3,0.6,0.6c0.3,0.3,0.6,0.6,0.6,0.6C470.2,128.9,469.7,128.5,469.4,128.2z"/>
		<path class="st0" d="M460.4,120.3C460.4,120.3,460.4,120.3,460.4,120.3l0.5,0.7c0,0,0,0,0,0C460.7,120.7,460.6,120.5,460.4,120.3z
			"/>
		<path class="st0" d="M499.6,149.1c0.2,0.1,0.3,0.1,0.5,0.2C499.9,149.2,499.7,149.2,499.6,149.1z"/>
		<path class="st0" d="M451,99.1c0,0,0.3,0.9,0.5,1.9c0.1,0.5,0.3,0.9,0.4,1.3c0.1,0.3,0.2,0.6,0.2,0.6c-0.2-0.5,0.3,1.3,0,0.6
			c0.1,0.3,0.5,1.6,0.4,1.2l-0.2-0.8c0.8,1.9,0.5,0.7,1.8,3.8c-0.3-1-0.5-1.7-0.7-2.3c-0.2-0.6-0.4-1.1-0.6-1.6
			c-0.1-0.4-0.2-0.7-0.3-1c0,0-0.1-0.2-0.2-0.5c-0.1-0.3-0.3-0.7-0.4-1c-0.3-0.8-0.5-1.5-0.5-1.5L451,99.1z"/>
		<path class="st0" d="M571.7,139.7L571.7,139.7C571.8,139.7,571.8,139.7,571.7,139.7z"/>
		<path class="st0" d="M571.7,139.9c0,0,0.1-0.2,0.1-0.2C571.6,139.9,571,140.4,571.7,139.9z"/>
		<path class="st0" d="M468.9,127.8c0.1,0,0.2,0.1,0.5,0.4l-0.9-0.9C468.7,127.5,468.8,127.7,468.9,127.8z"/>
		<path class="st0" d="M466.8,126l-1.8-2.5c0,0,0-0.1-0.1-0.1c-0.1-0.1-0.2-0.2-0.3-0.3c-0.2-0.2-0.4-0.4-0.4-0.4
			c0.2,0.2,0.3,0.5,0.5,0.8c0.2,0.3,0.4,0.5,0.6,0.8C465.8,124.7,466.2,125.3,466.8,126z"/>
		<path class="st0" d="M495.2,147.1c2.9,1.3,2.5,1.2,1.7,0.9c-0.8-0.3-2-0.7-0.6,0c0.4,0.2,0.7,0.3,1,0.4c0.3,0.1,0.6,0.2,0.8,0.3
			c0.5,0.1,0.9,0.3,1.4,0.4c-2.4-0.9-2.1-0.9-1.9-1c0.2-0.1,0.4-0.1-1.9-1.1c0.4,0,1.2,0.4,2.2,0.7c1,0.3,2,0.8,2.8,1.1
			c0.9,0.4,0.5,0.3-0.2,0.1c-0.7-0.2-1.6-0.6-1.9-0.5c1.9,0.7,1.6,0.5,2.4,0.7c1.5,0.5,3.1,1,4.5,1.3c0.7,0.2,1.4,0.4,2,0.5
			c0.6,0.2,1.2,0.3,1.6,0.5c1.1,0.2,1.6,0.3,2.1,0.3c0.4,0,0.7,0,1.4,0.1c0.2-0.1-0.7-0.3-1.6-0.5c-1-0.2-2-0.5-2.4-0.7
			c0.2,0.1,0.5,0.2,0.4,0.2c0,0-0.5-0.1-0.9-0.2c-0.5-0.1-0.9-0.3-0.9-0.3c0.4,0.2,0.6,0.2,0.7,0.3c0,0-0.1,0-0.3,0
			c-0.4-0.1-1.2-0.2-1.7-0.4c-0.7-0.2-2.1-0.6-1.9-0.6c0,0,0.3,0.1,0.5,0.1c0.3,0.1,0.5,0.1,0.5,0.1c-0.7-0.2-1.4-0.4-2.2-0.6
			c-0.8-0.2-1.5-0.4-2.2-0.8c-0.1-0.1,0.5,0.1,0.6,0.1c-0.8-0.2-1.6-0.5-2.5-0.8c-0.9-0.3-1.8-0.7-3-1.1l1.4,0.4
			c-1-0.3-2.5-0.9-4-1.7c-1.6-0.8-3.2-1.8-4.5-2.7c0.3,0.2,0.8,0.5,0.4,0.4c-0.4-0.2-0.8-0.4-1.1-0.7c-0.3-0.2-0.6-0.4-0.7-0.5
			c-0.4-0.3-0.4-0.4,0-0.3c-0.4-0.2-1-0.5-1.6-1c-0.6-0.4-1.3-1-2-1.5c-0.4-0.3-0.7-0.5-1.1-0.8c-0.3-0.3-0.7-0.5-1-0.8
			c-0.3-0.3-0.7-0.5-1-0.7c-0.3-0.2-0.6-0.4-0.8-0.6c0,0-0.6-0.4-1.5-1c-0.4-0.3-0.9-0.7-1.5-1.1c-0.5-0.4-1.1-0.8-1.7-1.3
			c-0.6-0.4-1.1-0.9-1.6-1.3c-0.5-0.4-1-0.8-1.4-1.2c-0.8-0.7-1.3-1.2-1.3-1.2c0.3,0.3,0.6,0.6,0.9,1c0.3,0.5,0.5,0.8,0.5,0.9
			c0,0.1-0.3-0.1-0.9-0.8c0.3,0.3,0.5,0.5,0.7,0.7c0.2,0.1,0.3,0.2,0.5,0.4c0.3,0.2,0.7,0.6,1.6,1.5c-0.4-0.3-0.7-0.5-0.7-0.4
			c0,0.1,0.1,0.2,0.3,0.5c0.2,0.3,0.5,0.6,1,1.1c0.6,0.5,1.2,1,1.8,1.5c0.3,0.2,0.6,0.5,0.9,0.7c0.3,0.2,0.6,0.4,0.9,0.6
			c0.6,0.4,1.1,0.8,1.7,1.2c0.6,0.4,1.1,0.7,1.7,1.1c1.1,0.7,2.2,1.3,3.4,2c0.6,0.4,1.2,0.7,1.8,1c0.6,0.3,1.2,0.7,1.9,1
			c0,0.1,1.1,0.8,2.4,1.5c0.3,0.2,0.7,0.4,1,0.5c0.3,0.2,0.7,0.4,1,0.5c0.7,0.3,1.3,0.7,1.8,0.9c-0.4-0.1-1-0.3-1.7-0.6
			c-0.7-0.3-1.5-0.7-2.2-1.1c0.5,0.3,1.1,0.6,1.8,1c0.3,0.2,0.7,0.4,1.1,0.5c0.2,0.1,0.3,0.2,0.5,0.3c0.2,0.1,0.3,0.2,0.5,0.2
			L495.2,147.1z"/>
		<path class="st0" d="M482.2,140.1c0.1,0.1,0.3,0.2,0.4,0.3C482.5,140.3,482.4,140.2,482.2,140.1z"/>
		<path class="st0" d="M490.1,144.9C490.1,144.9,490.1,144.9,490.1,144.9c0.1,0.1,0.3,0.2,0.5,0.3
			C490.4,145.1,490.3,145,490.1,144.9z"/>
		<path class="st0" d="M469.6,129.3c-0.3-0.3-0.5-0.5-0.8-0.7c0.2,0.2,0.4,0.4,0.6,0.6C469.6,129.3,469.7,129.4,469.6,129.3z"/>
		<path class="st0" d="M469,128.1l0.2,0.1c-0.1-0.1-0.2-0.2-0.3-0.3C468.9,127.8,468.9,127.9,469,128.1z"/>
		<path class="st0" d="M518.2,154.9l0.6,0C518.4,154.9,518.2,154.9,518.2,154.9z"/>
		<path class="st0" d="M501.6,150c-2.1-0.7-0.3,0.2-3.3-0.9l0.8,0.4c-0.5-0.2-1.2-0.4-1.8-0.7c-0.7-0.3-1.4-0.6-2.1-0.9
			c-0.4-0.2-0.7-0.3-1.1-0.5c-0.4-0.2-0.7-0.4-1.1-0.5c-0.7-0.4-1.4-0.7-2-1c0.3,0.1-1.3-0.9-1-0.9c-0.8-0.4-1.6-0.9-2.3-1.2
			c-0.7-0.4-1.3-0.7-1.7-0.9c-0.9-0.6-2.4-1.5-3.5-2.4c0.4,0.4-1.9-0.9,1.1,1c-0.2-0.2-0.1,0-0.3-0.2c1.7,1.4,2.7,1.7,4.3,2.7
			c0.9,0.7-1.7-0.9-0.8-0.3c0.3,0.2,0.6,0.3,0.9,0.5c0.3,0.2,0.7,0.4,1,0.6c0.7,0.4,1.5,0.9,2.2,1.2c1.4,0.7,2.5,1.3,2.6,1.1
			c0.4,0.2,0.7,0.3,1,0.5c0.3,0.1,0.4,0.2,0.6,0.3c0.3,0.2,0.5,0.3,0.7,0.4c0.3,0.1,0.7,0.2,1.2,0.4c0.4,0.2,0.9,0.3,1.5,0.5
			c0.5,0.2,1,0.4,1.6,0.6c0.5,0.2,1.1,0.4,1.6,0.6c2.1,0.8,3.9,1.3,4,1c-0.5-0.1-1.1-0.3-1.8-0.5c-0.7-0.2-1.4-0.4-2.2-0.6
			L501.6,150z"/>
		<path class="st0" d="M472.1,132.1c0.1,0.1,0.2,0.2,0.3,0.3C472.3,132.3,472.2,132.2,472.1,132.1z"/>
		<path class="st0" d="M458.7,107.7l0.6,0.7c0.2,0.6,0.5,1.2,0.7,1.7c0.2,0.5,0.4,1,0.6,1.4c0.2,0.4,0.4,0.9,0.6,1.3
			c0.1,0.2,0.2,0.4,0.3,0.6c0.1,0.2,0.2,0.4,0.3,0.6c0.4,0.8,0.7,1.5,1.1,2.3c0.4,0.8,0.9,1.6,1.5,2.6c0.1,0.3-0.2-0.1-0.3-0.4
			c0.2,0.3,0.4,0.7,0.6,1.1c0.2,0.4,0.5,0.8,0.7,1.1c0.5,0.8,1,1.6,1.6,2.4c0.6,0.8,1.1,1.5,1.6,2.2c0.5,0.6,1,1.2,1.4,1.6
			c0.2,0.2,0.4,0.5,0.6,0.8c0.2,0.3,0.5,0.6,0.7,0.9c0.4,0.5,0.6,0.9,0.3,0.5c0.3,0.4,0.7,0.8,1.1,1.2c0,0.2-0.9-0.9-1-0.9
			c0.3,0.3,0.4,0.5,0.5,0.5c-0.6-0.5,0.2,0.9-2.1-1.8c-0.3-0.6,0.1-0.1,0.5,0.4c0.5,0.5,1,1.1,0.8,0.7c-0.8-0.9-0.8-0.7-0.9-0.8
			c-0.5-0.6-0.7-0.9-0.8-1c-0.1-0.2,0-0.1,0-0.1c-0.2-0.2-0.6-0.7-1-1.2c-0.2-0.3-0.4-0.5-0.6-0.7c-0.2-0.2-0.3-0.4-0.5-0.6
			c-1.7-2.4,0.3,0-0.8-1.6c0,0-0.2-0.2-0.4-0.4c-0.1-0.1-0.2-0.2-0.3-0.2c-0.1-0.1-0.1-0.1-0.1-0.1l-1.7-2.7c-1.2-2-1.2-1.8-1.3-1.6
			c0,0.1-0.1,0.1-0.3-0.1c-0.2-0.2-0.6-0.8-1.3-1.9c0.2,0.3,0.2-0.1-0.1-0.8c-0.1-0.4-0.3-0.8-0.5-1.3c-0.2-0.5-0.4-1.1-0.6-1.6
			c0.2,0.3,0.3,0.7,0.6,1.2c0.2,0.4,0.5,0.9,0.8,1.4c0.5,1,1.1,2,1.5,2.8c-1.1-2.4,1.9,3.2,1.4,1.8c-0.8-1.1-1.9-2.9-2.6-4.5
			l0.3,0.5c-0.2-0.4-0.4-0.8-0.6-1.1c-0.2-0.4-0.4-0.7-0.6-1.1c-0.4-0.8-0.9-1.6-1.3-2.8c-0.5-1.2-0.3-1-0.2-0.8
			C459,108.6,458.6,107.8,458.7,107.7z M459.8,110.2c0,0,0,0.1,0.1,0.2c0.1,0.1,0.1,0.3,0.2,0.5c0.2,0.4,0.3,0.8,0.3,0.8
			C460.3,111.4,460,110.8,459.8,110.2z"/>
		<path class="st0" d="M588.3,44.6c0.1,0.2,0.2,0.3,0.2,0.5C588.5,45,588.4,44.8,588.3,44.6z"/>
		<path class="st0" d="M459.8,47.1l0.5-0.9C460.1,46.6,459.9,46.9,459.8,47.1z"/>
		<path class="st0" d="M472.9,28.4l1-1.1C473.6,27.7,473.2,28.1,472.9,28.4z"/>
		<path class="st0" d="M581.2,34.8L581.2,34.8c-0.1-0.1-0.1-0.1-0.2-0.2L581.2,34.8z"/>
		<path class="st0" d="M514,9.2c0.2,0,0.5,0,0.8,0C514.8,9.1,514.5,9.2,514,9.2z"/>
		<path class="st0" d="M472.8,28.6C472.8,28.6,472.8,28.6,472.8,28.6c0.1-0.1,0.2-0.2,0.2-0.2L472.8,28.6z"/>
		<path class="st0" d="M454.7,55.9c-0.1,0.2-0.1,0.4-0.2,0.6C454.6,56.2,454.6,56,454.7,55.9z"/>
		<path class="st0" d="M456,54.9c-0.1,0.2-0.2,0.4-0.2,0.6L456,54.9z"/>
		<path class="st0" d="M450.2,89.3l0.1,1.4C450.3,90,450.2,89.6,450.2,89.3z"/>
		<path class="st0" d="M454.6,58.2c0,0.1,0,0.2,0,0.2C454.6,58.2,454.6,58.1,454.6,58.2z"/>
		<path class="st0" d="M591.5,52.6C591.5,52.6,591.4,52.6,591.5,52.6L591.5,52.6L591.5,52.6z"/>
		<path class="st0" d="M593.2,55.5c0.2,0.4,0.3,0.7,0.5,1.1C593.5,56.2,593.3,55.8,593.2,55.5z"/>
		<path class="st0" d="M533.8,9.5c0.4,0.1,1.2,0.2,0.8,0.3C535.3,9.7,535.3,9.6,533.8,9.5z"/>
		<path class="st0" d="M586.8,47.8c0.1,0.2,0.3,0.4,0.5,0.6C587,47.9,586.7,47.6,586.8,47.8z"/>
		<path class="st0" d="M587.2,48.3c0.1,0.2,0.3,0.4,0.4,0.6C587.5,48.7,587.4,48.5,587.2,48.3z"/>
		<path class="st0" d="M524.7,11.5c-0.1,0-0.2,0-0.4,0C524.3,11.5,524.5,11.5,524.7,11.5z"/>
		<path class="st0" d="M593.9,57.5c0.2,0.2,2,5,0.6,0.9c0.1,0,0.4,0.7,0.7,1.5c0.1,0.4,0.3,0.8,0.4,1.2c0.1,0.4,0.2,0.8,0.3,1
			c-0.2-0.8,0.3,0.4,0.3,0.1c-0.2-0.5-0.4-1.2-0.7-2.1c0-0.5,0.5,0.9,0.8,2c-0.3-1.4,0.7,1.7,0.2-0.3c-0.3-1-0.6-1.9-1-2.8
			c-0.3-0.9-0.6-1.7-1-2.4c-0.3-0.8-0.7-1.5-1-2.2c-0.3-0.7-0.7-1.3-1.1-2c0.3,0.5,0.5,1.1,0.8,1.7c0.2,0.6,0.5,1.2,0.7,1.7
			c0.2,0.6,0.5,1.1,0.7,1.7c0.2,0.5,0.3,1.1,0.5,1.5l-0.5-0.7c-0.1-0.3-0.1-0.5-0.2-0.8c-0.1-0.2-0.2-0.5-0.2-0.7
			c-0.2-0.4-0.3-0.9-0.5-1.3c-0.2-0.4-0.3-0.8-0.5-1.3c-0.2-0.4-0.4-0.9-0.6-1.4c0,0,0.1,0.3,0.3,0.7c0.2,0.4,0.4,1,0.6,1.6
			c0.4,1.2,0.9,2.3,0.9,2.3c0.3,1.1,0.3,1.3,0.2,1c-0.1-0.1-0.2-0.4-0.3-0.8c-0.1-0.3-0.3-0.7-0.5-1.2
			C593.8,57,593.9,57.4,593.9,57.5z"/>
		<path class="st0" d="M591.1,55.1L591.1,55.1c0.1,0.1,0.1,0.2,0.1,0.3L591.1,55.1z"/>
		<path class="st0" d="M454.2,88.7l0.1,0.4C454.2,88.8,454.2,88.7,454.2,88.7z"/>
		<path class="st0" d="M590.8,52.1L590.8,52.1C590.8,52.1,590.8,52.1,590.8,52.1z"/>
		<path class="st0" d="M454.1,78.6C454.1,78.6,454.1,78.7,454.1,78.6C454.1,78.6,454.1,78.6,454.1,78.6z"/>
		<path class="st0" d="M450,75.5C450,75.5,450,75.5,450,75.5C450,75.8,450,75.7,450,75.5z"/>
		<path class="st0" d="M454.1,78.6C454.1,78.6,454.1,78.6,454.1,78.6C454.1,78.6,454.1,78.6,454.1,78.6z"/>
		<path class="st0" d="M472.6,34c0,0-0.1,0.1-0.3,0.2C472.2,34.3,472.3,34.3,472.6,34z"/>
		<path class="st0" d="M466.2,41.4c0,0-0.1,0.1-0.1,0.1L466.2,41.4z"/>
		<path class="st0" d="M531.5,8.3c-0.5,0-0.9-0.1-1.2-0.1C530.7,8.3,531.1,8.3,531.5,8.3z"/>
		<path class="st0" d="M454.1,78.7c0,0.1,0,0.2,0,0.5C454.1,78.9,454.1,78.8,454.1,78.7z"/>
		<path class="st0" d="M483.3,23.4c-0.1,0.1-0.2,0.1-0.2,0.2L483.3,23.4L483.3,23.4z"/>
		<path class="st0" d="M487.7,20.7c-0.1,0.1-0.2,0.2-0.3,0.2c0.8-0.5,1.9-1.1,2.9-1.7c1-0.5,1.8-1,2-1.2c-0.3,0.1-1.2,0.6-1.9,0.9
			c-0.7,0.3-1.4,0.6-1.1,0.4c-0.5,0.3-1.3,0.7-1.9,1.1c-0.6,0.3-1.2,0.7-1.5,0.9c1.8-1,0.3,0-0.9,0.9c-1.1,0.7,0.1-0.3-0.9,0.3
			l-2.4,1.8l2.2-1.5l-0.5,0.6c0.1-0.1,0.1-0.1,0.2-0.2c0.9-0.7,1.4-0.9,1.7-1.1c0.3-0.2,0.3-0.1,0.4-0.1c0.1,0,0.1,0,0.4-0.2
			c0.1-0.1,0.3-0.2,0.6-0.4C486.9,21.3,487.2,21,487.7,20.7z"/>
		<path class="st0" d="M487.4,21c-0.2,0.1-0.4,0.3-0.6,0.4C487.2,21.2,487.3,21,487.4,21z"/>
		<path class="st0" d="M504,14c0.2-0.1,0.4-0.1,0.7-0.2C504.6,13.8,504.3,13.9,504,14z"/>
		<path class="st0" d="M463,120.7c0-0.1-1.2-2.4-1.3-2.3c0.4,0.7,0.7,1.3,1.1,2c0,0,0,0.1,0.1,0.1C463,120.6,463,120.7,463,120.7z"
			/>
		<path class="st0" d="M552.3,15.4c-0.3-0.1-0.5-0.2-0.8-0.3c-0.1,0-0.1,0-0.2,0C551.4,15.1,552,15.3,552.3,15.4z"/>
		<path class="st0" d="M489.9,19c-0.4,0.3-0.6,0.4-0.7,0.5C489.5,19.3,489.7,19.1,489.9,19z"/>
		<path class="st0" d="M552.3,15.8c0.3,0.2,0.8,0.4,0.8,0.5c0.7,0.3,1.2,0.4,1.9,0.7c-0.4-0.2-0.8-0.4-1.3-0.6
			c-0.2-0.1-0.5-0.2-0.7-0.3C552.8,16,552.5,15.9,552.3,15.8z"/>
		<path class="st0" d="M555.1,17.1C555,17,555,17,555.1,17.1C555,17,555,17,555.1,17.1z"/>
		<path class="st0" d="M463.8,122c0.1,0.2,0.3,0.4,0.4,0.6l-0.2-0.3c0.3,0.5,0.6,1,0.9,1.5c0.1,0.2,0.3,0.4,0.4,0.6
			c-0.1-0.1-0.1-0.2-0.2-0.2c0.1,0.2,0.2,0.3,0.3,0.5c0.2,0.3,0.5,0.6,0.9,1.1c0.2,0.2,0.3,0.4,0.5,0.7c0.2,0.2,0.4,0.4,0.6,0.7
			c0.8,0.9,1.5,1.7,1.9,2.1c0.5,0.5,1,1,1.4,1.5c0.2,0.3,0.5,0.5,0.7,0.8c0.2,0.2,0.4,0.4,0.6,0.6c-0.7-0.7-1.5-1.6-1.3-1.3
			c0.6,0.8,1,1.3,1.6,2c0.3,0.3,0.6,0.7,1,1.1c0.4,0.4,0.9,0.9,1.6,1.4c0,0-0.4-0.3-0.7-0.7c-0.2-0.2-0.4-0.3-0.5-0.5
			c-0.1-0.1-0.2-0.2-0.2-0.2s0.1,0,0.1,0.1c0.1,0.1,0.2,0.2,0.4,0.3c0.3,0.3,0.7,0.6,1.2,1c0.4,0.3,0.9,0.7,1.2,0.9
			c0.3,0.2,0.6,0.4,0.6,0.4c0.5,0.6,0.1,0.2-0.6-0.3c-0.6-0.5-1.4-1.2-1.7-1.4c0.7,0.6,1.2,1.1,1.8,1.6c0.6,0.5,1.1,1,1.6,1.5
			c0.2,0.2,0.5,0.4,0.7,0.7c0.2,0.2,0.5,0.4,0.7,0.5c0.4,0.3,0.8,0.6,1.2,0.8c0.1,0.3,0.2,0.8,2,2.1c-1.2-1.1,1.2,0.7,0.2-0.3
			c0.3,0.2,0.8,0.6,1.3,0.9c0.4,0.3,0.8,0.6,0.9,0.6l-0.2-0.1c0.8,0.6,1.4,1,2,1.4c0.6,0.4,1.1,0.6,1.5,0.8c0.9,0.4,1.6,0.7,2.4,1
			c1,0.5,1.9,0.9,2.7,1.4c0.8,0.4,1.5,0.7,2.3,1c0.4,0.2,0.7,0.3,1.1,0.5c0.4,0.1,0.7,0.3,1.1,0.4c0.7,0.3,1.5,0.6,2.4,0.9
			c0.1,0.2,1,0.8,2.4,1.3c0.4,0.1,1.4,0.3,2.3,0.5c1,0.2,1.9,0.4,2.1,0.3c-2.6-0.8-2.2-0.4-3.7-0.8c-1.2-0.6-0.1-0.2-1.7-1
			c1.3,0.6,6.4,1.8,7.9,2.3l-0.6-0.1c0.6,0.2,1.1,0.4,1.6,0.5c0.5,0.1,0.9,0.3,1.3,0.4c0.5,0.1,1,0.3,1.7,0.4
			c0.7,0.1,1.5,0.2,2.6,0.2c0,0,0.5,0,1,0.1c0.3,0,0.5,0,0.7,0c0.2,0,0.3,0,0.3,0c-0.1,0-0.1,0-0.2,0.1c1.7,0.1,2.3,0.2,2.9,0.3
			c0.7,0.1,1.4,0.1,3.2,0c-0.3,0-0.1,0-0.4,0c1.1,0.1,2.1,0,3.1,0c0.5,0,1-0.1,1.4-0.1c0.5,0,0.9-0.1,1.3-0.1c1,0.1-0.2,0.2-0.8,0.4
			c3.7-0.1,7.7-1,9.9-1.7c0,0,0.1,0,0.4-0.1c0.2,0,0.5-0.1,0.8-0.1c0.6-0.1,1.2-0.2,1.2-0.2c-0.7,0.2-1.4,0.5-2,0.6
			c-0.5,0.2-0.8,0.3-0.6,0.3c1.3-0.3,1-0.3,2.8-0.7c-0.3,0.2-1,0.5-1.9,0.8c3.8-0.7,0.8-0.6,3.5-0.8c1.2-0.3,1.8-0.7,1.9-0.8
			c0,0,0.5-0.1,1.1-0.2c0.5-0.1,1.1-0.2,1.1-0.2c0.1-0.1,0.8-0.4,1.6-0.7c0.4-0.2,0.9-0.3,1.4-0.5c0.5-0.2,0.9-0.4,1.3-0.6
			c0.2-0.2-1.4,0.4-2,0.6c0.1-0.1,1.8-0.9,2.9-1.3c0.3,0.1,2.1-0.7,3.7-1.4c1.6-0.8,2.9-1.5,2.4-1c1.2-0.6,2.5-1.4,3.8-2.2
			c0.7-0.4,1.3-0.8,2-1.3c0.6-0.4,1.3-0.8,1.9-1.3c0.6-0.5,1.2-0.9,1.8-1.3c0.6-0.4,1.1-0.9,1.6-1.3c0.5-0.4,1-0.8,1.4-1.2
			c0.4-0.4,0.8-0.7,1.1-1c0.5-0.4,1.2-0.9,1.6-1.3c0.4-0.4,0.6-0.5,0.2,0.1c0.8-0.8,1.5-1.4,2.1-2.1c0.6-0.7,1.1-1.3,1.7-1.9
			c0.3-0.3,0.5-0.6,0.8-0.9c0.3-0.3,0.5-0.7,0.8-1c0.3-0.3,0.6-0.7,0.9-1.1c0.2-0.2,0.3-0.4,0.5-0.6c0.2-0.2,0.3-0.4,0.5-0.6
			c0.1-0.1-0.2,0.3-0.5,0.7c-0.3,0.4-0.7,0.8-0.6,0.8c0.2-0.3,0.4-0.6,0.7-0.8c0.2-0.3,0.4-0.5,0.6-0.8c0.4-0.5,0.9-1.1,1.4-1.6
			c0.5-0.6,0.9-1.2,1.5-1.9c0.3-0.4,0.5-0.7,0.8-1.1c0.3-0.4,0.5-0.9,0.8-1.3c-0.4,0.6-0.5,0.9-0.5,1c-0.1,0,0.9-1.6,1.4-2.6
			c0.2-0.3,0.1-0.1,0,0.1c-0.1,0.2-0.3,0.5-0.1,0.3c2.3-3.6,3.9-7,5.3-10.5c0.3-0.9,0.6-1.8,1-2.6c0.3-0.9,0.6-1.8,0.9-2.7
			c0.1-0.2,0.1-0.5,0.2-0.7c0.1-0.2,0.1-0.5,0.2-0.7c0.1-0.5,0.3-1,0.4-1.4c0.1-0.5,0.3-1,0.4-1.5c0.1-0.5,0.2-1,0.3-1.5
			c-0.3,1.2-0.4,2-0.5,2.5c-0.1,0.5-0.1,0.8,0,0.8c0,0,0.2-0.6,0.3-1.1c0.1-0.3,0.2-0.6,0.2-0.8c0.1-0.2,0.1-0.4,0.1-0.4
			c0.1-0.9,0.5-2.6,0.7-4.1c0.1-0.2,0.3-0.9,0.2-0.1c0.1-0.6,0.2-1.1,0.3-1.6c0.1-0.5,0.1-1,0.2-1.5c0-0.5,0.1-1,0.1-1.5
			c0-0.5,0.1-1,0.1-1.5c0-1,0-2,0.1-3.1c0-1.1,0-2.4,0.1-3.8c0,0,0.1,1.7,0.2,3.5c0,0.9,0,1.7,0,2.4c0,0.7,0,1.1,0,1.1l0.3-1.7
			c0,0,0,0.8,0,1.5c0,0.4,0,0.8,0,1.1c0,0.3,0,0.5,0,0.5c0.2-0.9,0.2-1.8,0.2-2.4c0-0.7,0-1.1,0.1-1.2c0,0.4-0.1,1.3,0,1.4
			c0.1-0.9,0.1-1.4,0.1-1.8c0-0.4,0-0.8,0-1.5c0.1,0.9,0.1,2,0,3.2c0,0.6,0,1.2-0.1,1.9c-0.1,0.6-0.1,1.3-0.2,1.9
			c-0.1,1.3-0.4,2.6-0.5,3.8c-0.2,1.2-0.4,2.3-0.6,3.2c-0.1,0.6,0-0.5,0-0.6c-0.2,0.7-0.3,1.3-0.5,2c-0.2,0.6-0.4,1.3-0.6,2.2
			c-0.2,1.2,0.4-0.8,0.6-1.7c0.1,0.2,0,0.6-0.3,1.6c-0.2,0.2-1.8,5.5-2.6,6.6c-0.2,0.7-0.4,1.1-0.5,1.5c-0.1,0.3-0.2,0.6-0.2,0.7
			c-0.1,0.3,0,0.2,0.1,0.1c0.2-0.2,0.4-0.4-0.8,2.1c0,0-0.2,0.4-0.4,0.7c-0.2,0.3-0.5,0.7-0.5,0.7c-1.2,2.9-3.2,6.6-5.3,9.5l0.4-0.6
			c0.2-0.5-0.3,0.2-0.6,0.5c-0.4,0.5-0.8,1.1-1.2,1.6c-0.4,0.5-0.7,1-1.1,1.5c-0.7,0.9-1.3,1.8-1.9,2.3c-0.5,0.6-1,1.3-1.6,2.1
			c-0.6,0.7-1.3,1.5-2,2.3c-1.5,1.6-3,3.1-4.3,4.3c-0.5,0.2,0.4-0.6,1.5-1.6c0.5-0.5,1.1-1.1,1.6-1.6c0.5-0.5,0.9-1,1.2-1.3
			c0,0-0.1,0.1-0.3,0.4c-0.2,0.2-0.5,0.5-0.8,0.8c-0.6,0.6-1.2,1.1-1.2,1.1c1.4-1.4,2-2,2.7-3c-1,1-1.6,1.7-2.3,2.4
			c-0.3,0.3-0.6,0.7-1,1.1c-0.4,0.4-0.8,0.7-1.3,1.2c0.1-0.2-0.2,0-1.1,0.8l-0.2,0.4c0,0-0.1,0.1-0.4,0.3c0,0-0.9,0.8-1.8,1.5
			c-0.5,0.4-0.9,0.7-1.3,1c-0.4,0.3-0.6,0.4-0.6,0.4c0.4-0.3,0.7-0.4,1-0.5c0.3-0.1,0.6-0.3,1-0.7c-0.4,0.2,0.4-0.5,1.4-1.2
			c-0.8,0.8,1-0.7,1-0.6c-1,0.8-2.1,1.6-3.1,2.4c-1,0.8-2,1.4-2.6,1.9c0,0-0.1,0-0.3,0.1c-0.1,0-0.3,0.1-0.3,0.1c-1,0.6-2,1.3-3,1.9
			c-1,0.6-1.9,1.1-2.6,1.5l0.4-0.3c-0.6,0.4-1.3,0.7-1.9,1c-0.6,0.3-1.2,0.6-1.8,1c-1.2,0.6-2.5,1.1-3.6,1.5
			c-0.6,0.3-1.2,0.6-1.8,0.9c-0.6,0.3-1.3,0.6-1.9,0.9c-0.6,0.3-1.3,0.5-1.8,0.8c-0.3,0.1-0.6,0.2-0.8,0.4c-0.3,0.1-0.5,0.2-0.8,0.3
			c-0.3,0.1-0.8,0.3-1.6,0.5c-0.4,0.1-0.8,0.2-1.3,0.3c-0.5,0.1-1,0.2-1.5,0.3c-0.5,0.1-1,0.2-1.6,0.3c-0.5,0.1-1,0.2-1.5,0.3
			c-1,0.2-1.9,0.4-2.6,0.6c-0.2,0,1.9-0.5,2.9-0.7c-0.9,0.2-1.8,0.4-2.4,0.5c-0.7,0.2-1.2,0.2-1.5,0.1c0.5-0.1,0.9-0.1,1.2-0.1
			c0.3-0.1,0.5-0.1,0.6-0.1c0.2-0.1,0.1-0.1-0.1-0.1c-0.4,0-1,0-0.1-0.2c-0.5,0.1-1,0.2-1.5,0.2c-0.5,0.1-1,0.1-1.4,0.2
			c-0.4,0.1-0.9,0.1-1.2,0.2c-0.4,0-0.7,0.1-0.9,0.1c0.4,0,0.7,0,0.9-0.1c0.2,0,0.3,0,0.4,0c0.1,0,0,0.1-0.2,0.1
			c-0.3,0.1-0.5,0.2,1.1-0.1c-1.2,0.3-2.7,0.4-4.3,0.6c-0.8,0.1-1.6,0.1-2.4,0.1c-0.8,0-1.6,0-2.3,0c0-0.1-0.3-0.2-1.5-0.2l-0.9,0.1
			c-1.4-0.1,2.7-0.1-0.1-0.2c-0.4,0-0.8,0-1.2,0c-0.4,0-0.9,0-1.4-0.1c-0.5,0-1-0.1-1.5-0.1c-0.3,0-0.5,0-0.8-0.1
			c-0.3,0-0.5-0.1-0.8-0.1c-1-0.1-1.9-0.2-2.7-0.3c-0.8-0.1-1.4-0.1-1.7-0.1c-1.1-0.3,0-0.1,0.9,0c0.2,0,0.5,0.1,0.6,0.1
			c0.2,0,0.3,0,0.4,0c0.1,0-0.1-0.1-0.9-0.3c0.5,0.1,1,0.1,1.6,0.2c0.5,0.1,1.1,0.1,1.6,0.2c0.5,0.1,1,0.1,1.3,0.1
			c0.4,0,0.7,0,0.8,0c-1,0-1.1-0.1-1.2-0.2c-0.1-0.1-0.1-0.1-0.7-0.2l-2.1-0.1l0.5,0.1c-0.4,0-0.9-0.1-1.4-0.1
			c-0.5-0.1-1-0.2-1.6-0.2c-0.5-0.1-1.1-0.2-1.7-0.3c-0.6-0.1-1.2-0.3-1.8-0.4c-0.6-0.1-1.2-0.3-1.8-0.4c-0.6-0.2-1.2-0.3-1.8-0.5
			c-0.6-0.2-1.2-0.3-1.8-0.5c-0.6-0.2-1.1-0.4-1.7-0.6c-1.9-0.5-3.4-1-5.1-1.5c-1.6-0.6-3.4-1.3-5.4-2.4c0.6,0.3-0.2-0.2-0.9-0.6
			c-0.3-0.2-0.6-0.4-0.6-0.4c0-0.1,0.2,0,0.9,0.3c-0.5-0.3-0.9-0.6-1.4-0.8c-0.4-0.3-0.8-0.5-1.2-0.7c-0.7-0.4-1.2-0.6-1.3-0.6
			c1.6,1,0.6,0.4,1.9,1.2c-0.5-0.2-1.3-0.6-2.1-1.1c-0.8-0.5-1.5-1-1.9-1.3c0.4,0.3,0.3,0.1,0.4,0.2c-0.9-0.6-1.2-0.8-1.4-0.8
			c-0.2-0.1-0.3-0.1-1-0.5c-0.2-0.2-0.9-0.8-1.7-1.4c-0.8-0.6-1.7-1.3-2.3-1.8c0,0-0.1-0.1-0.3-0.2c-0.2-0.1-0.4-0.3-0.6-0.4
			c-0.5-0.3-0.9-0.6-0.9-0.6c1,0.7-1.6-1.4-1.7-1.8c-1.2-1-2.3-1.7-3.9-3.5c0.7,0.7-1.4-1.6-1.3-1.8c-0.6-0.8-1.3-1.5-1.9-2.1
			c-0.6-0.7-1.1-1.3-1.7-1.9c-0.3-0.3-0.6-0.6-0.8-0.9c-0.3-0.3-0.5-0.7-0.8-1c-0.3-0.3-0.5-0.7-0.8-1.1c-0.3-0.4-0.5-0.8-0.7-1.2
			c0.1,0.1,0.6,0.7,0-0.3c-0.3-0.4-0.6-0.9-0.9-1.4c-0.3-0.5-0.7-1-0.9-1.5l0,0c0,0,0,0,0,0c-0.2-0.4-0.4-0.6-0.4-0.6
			c-0.5-0.7-0.9-1.2-1.3-1.8c-0.4-0.7-1-1.6-1.8-3c0,0.1,0.3,0.8,0.7,1.6c0.4,0.8,0.9,1.6,1.2,2.1l0.7,0.8c0.1,0.5,0.5,1.1,0.9,1.7
			c0.4,0.6,0.8,1.1,1,1.4c-0.3-0.4-0.8-0.9-1.2-1.6c-0.5-0.7-1-1.6-1.5-2.4c-1-1.8-2.1-3.8-2.8-5.3c0.2,0.5,0.4,1.1,0.7,1.8
			c0.3,0.7,0.7,1.5,1.1,2.3c0.2,0.4,0.4,0.9,0.6,1.3c0.2,0.4,0.5,0.9,0.7,1.3c0.5,0.9,1,1.7,1.5,2.6c0,0-0.2-0.4-0.4-0.8
			c-0.1-0.2-0.2-0.4-0.3-0.5c-0.1-0.1-0.1-0.2-0.1-0.2s0.1,0.1,0.2,0.3c0.1,0.2,0.2,0.4,0.4,0.6c0.3,0.4,0.6,0.9,0.6,0.9
			s-0.2-0.4-0.5-0.9c-0.2-0.4-0.4-0.9-0.4-0.9c0.2,0.4,0.5,0.8,0.7,1.2c0.2,0.4,0.5,0.8,0.7,1.1c0.2,0.4,0.5,0.7,0.7,1.1
			c0.2,0.4,0.5,0.7,0.7,1.1c-0.3-0.4-0.5-0.8-0.7-1.1c-0.2-0.3-0.3-0.5-0.3-0.7c-0.1-0.3,0-0.2,0.3,0.3c0.3,0.5,0.5,0.9,0.7,1.1
			c0.2,0.3,0.4,0.5,0.6,0.7c0.3,0.4,0.7,0.7,1.2,1.4c-0.5-0.8-1.3-1.8-0.7-1.2c0.9,1.5,1.6,2.3,2.2,3.1c0.6,0.8,1.3,1.6,2.2,2.9
			c0-0.1,0.1,0,0.4,0.3c0.2,0.3,0.6,0.6,1,1c0.7,0.8,1.6,1.6,1.8,1.7l-1-1.1c0,0,0.6,0.5,1.1,1c0.3,0.3,0.6,0.5,0.8,0.7
			c0.2,0.2,0.4,0.3,0.4,0.3c1.9,2.1-2-1.5,1,1.5c2.9,2.7,3.1,2.3,5.5,4.2c-0.5-0.2-1.2-0.7-2.1-1.3c-0.9-0.6-1.8-1.4-2.8-2.2
			l1.1,1.1c-0.2-0.1-0.5-0.3-0.8-0.6c-0.2-0.1-0.4-0.3-0.6-0.5c-0.2-0.2-0.4-0.4-0.6-0.6c-0.4-0.4-0.9-0.8-1.3-1.2
			c-0.4-0.4-0.8-0.8-1.1-1.1c0.3,0.2,0.5,0.4,0.6,0.5c0.1,0.1,0.2,0.1,0.2,0.1c0,0-0.2-0.2-0.5-0.5c-0.6-0.6-1.5-1.6-1.9-2.2
			c-0.3-0.1,1,1.3-0.6-0.2c0.7,0.7,1.1,1.2,1.6,1.6c0.5,0.5,0.9,1,1.9,1.9c-1-1-1.7-1.7-2.3-2.3c-0.6-0.6-1.1-0.9-1.5-1.3
			c-0.4-0.4-0.9-0.8-1.4-1.3c-0.3-0.3-0.5-0.6-0.8-0.9c-0.3-0.4-0.6-0.8-1-1.3c1.5,1.7-0.3-0.8-0.4-1c-0.2-0.2-0.4-0.5-0.6-0.7
			c-0.2-0.3-0.5-0.6-0.7-0.9c-0.5-0.6-0.9-1.2-1.2-1.6l0.3,0.8c-0.9-1.1-1.3-2-1.8-2.9c-0.2-0.5-0.5-0.9-0.8-1.4
			c-0.3-0.5-0.6-1.1-1.1-1.8c-0.3-0.3,1.4,2.6,1.1,2c-1.2-1.9-1.9-3.3-2.5-4.7c-0.3-0.7-0.6-1.3-0.9-2.1c-0.3-0.7-0.6-1.5-0.9-2.5
			c-0.1-0.1-0.2-0.1-0.3-0.3c-0.1-0.1-0.4-0.4-0.7-1.1c0.3,0.4,0-0.6,0.7,0.8c-0.5-1.3-1.1-2.7-1.6-3.8c0.5,1.3,0.3,1.1,0,0.4
			c-0.3-0.6-0.7-1.7-0.8-1.9c-0.4-1.4,0.3,0.4,0.6,1.2c-0.3-1.1-0.6-2.5-1-3c0.1,0,0.4,0.7,0.9,1.7c0.2,0.5,0.4,1.1,0.7,1.6
			c0.3,0.6,0.5,1.1,0.7,1.6l-0.5-1.4c0.4,0.9,0.5,1.1,1,2.4c-0.4-1.3-0.2-1.3,0-1c0,0.2-0.1-0.1,0,0.1c0.4,1.1,0.8,1.9,0.7,1.6
			c0.3,0.4,0.2,0.1,0-0.5c-0.2-0.6-0.5-1.4-0.6-1.8c-0.2-0.5-0.5-1.1-0.7-1.6c0,0-0.6-1.4-1.3-2.7c-0.3-0.7-0.6-1.4-0.8-1.9
			c-0.2-0.5-0.4-0.9-0.4-0.9c-0.4-1.2-0.6-2.1-0.7-3c-0.1-0.8-0.3-1.6-0.4-2.6l-0.3-0.5c-0.1-0.5-0.2-1.1-0.3-1.6
			c-0.1-0.5-0.1-0.9-0.1-1.2c0-0.6,0-0.8,0.2-0.1c0,0.1,0,0.4,0.1,0.9c0,0.1,0.1,0.2,0.1,0.3c0,0,0,0.1,0.1,0.1
			c-0.1-0.3-0.1-0.6-0.2-0.8c0-0.3-0.1-0.5-0.1-0.8c-0.1-0.5-0.1-0.9-0.2-1.2c-0.1-0.7-0.2-1.1-0.2-1.1c0.8,4,0.3,0.2,0.8,0.8
			c0,0,0-0.2-0.1-0.6c-0.1-0.4-0.1-0.9-0.2-1.4c-0.1-1-0.2-2-0.2-2c0.1,2.5-0.2,0.1-0.3-0.8c0.1-0.1,0.1-0.9,0-1.9
			c0-0.5,0-1-0.1-1.5c0-0.2,0-0.5,0-0.7c0-0.2,0-0.4,0-0.6l0,0.1c0.1-1.3,0.1-3.6,0.2-5.3c-0.1,0.1-0.2-2.1-0.2-3.1
			c-0.2,1.4-0.3,1.7-0.3,1.6c0,0-0.1-0.4-0.1-0.3c0-0.3,0.1-0.8,0.1-0.9c0-0.4-0.1,0.5-0.2,0.6c0,0.8-0.1,1.5-0.1,2.3
			c0,0.4,0,0.7-0.1,1.1c0,0.4,0,0.7,0,1c0,1.3,0.1,2.4,0.2,3c0.1-0.9-0.1-1.6,0-2.6c0.1,0.8,0.1,1.6,0.1,2.6c0,1,0,2.1,0.1,3.3
			l-0.1,0.8c0,0,0,0.2,0,0.4c0,0.2,0.1,0.5,0.1,0.9c0.1,0.6,0.1,1.3,0.1,1.3c-0.1-0.5-0.1-0.6-0.2-0.9c0-0.1-0.1-0.4-0.1-0.7
			c0-0.3-0.1-0.8-0.1-1.4c-0.2,0.3,0.2,2.6,0.3,4.3c0,0,0.1,0.2,0.1,0.4c0.1,0.2,0.2,0.4,0.2,0.4c-0.2-0.3,0.3,3.2-0.2,0.7
			c0,0,0-0.2-0.1-0.6c0-0.2-0.1-0.4-0.1-0.6c0-0.2-0.1-0.5-0.1-0.7c-0.1-1-0.2-2-0.2-2l-0.1,1.1c0,0-0.1-0.9-0.1-1.7
			c0-0.4-0.1-0.9-0.1-1.2c0-0.3,0-0.5,0-0.5l0.1,0.8c-0.3-5.5,0.3-1.6,0.2-7.1c-0.1-0.9-0.1-1.8,0-2.9c0-1.1,0.2-2.4,0.5-4.1
			c-0.3,2.4,0.1,0.3,0.2,1.2c0.4-2.5,0.4-3.3,0.5-4.6c0.2-0.6,0.4-1,0,1.2c0.2,0.3,0.4-2.9,0.8-3c0.4-1.8,0.6-3.1,0.9-4.1
			c0.2-1,0.3-1.8,0.5-2.6c0.2-0.8,0.4-1.6,0.7-2.8c0.2-0.6,0.4-1.2,0.7-2c0.3-0.7,0.6-1.6,1.1-2.6l0,0.3c0.5-1.3,1-2.4,1.5-3.4
			c0.5-1,1-2,1.5-2.9c0.5-0.9,1-1.8,1.6-2.8c0.3-0.5,0.6-1,0.9-1.4c0.3-0.5,0.6-1,1-1.6c0,0,0.1-0.2,0.4-0.5
			c0.2-0.3,0.6-0.7,0.9-1.1c0.6-0.8,1.3-1.5,1.3-1.5c-0.5,0.8-1.7,2.8-0.9,2c-0.7,0.7-1.3,1.5-1.8,2.4c-0.3,0.4-0.6,0.8-0.9,1.3
			c-0.3,0.4-0.6,0.9-0.9,1.3c0,0.2,0.4-0.5,0.7-0.8c-0.6,1.1-1.1,1.6-1.8,3c0.1-0.1,1.1-1.6,0.4-0.4c0,0-0.1,0.1-0.2,0.3
			c-0.1,0.2-0.3,0.4-0.4,0.7c-0.3,0.5-0.6,1-0.6,1c-0.3,0.7-0.5,1.1-0.6,1.4c-0.1,0.3-0.1,0.5-0.2,0.7c-0.1,0.4-0.3,0.9-1,2.5
			c0.1-0.7,0.5-2,1-3.3c-0.3,0.7-0.2,0.2,0.1-0.3c0.2-0.5,0.5-1,0.1-0.4c-0.2,0.5-0.4,1-0.6,1.5c-0.2,0.4-0.4,0.9-0.6,1.3
			c-0.2,0.4-0.4,0.9-0.6,1.4c-0.2,0.5-0.4,1.2-0.7,1.9c0.1-0.4,0.1-0.5,0.4-1.2c0,0-0.4,1-0.9,2.1c-0.2,0.5-0.4,1.1-0.5,1.5
			c-0.1,0.4-0.2,0.7-0.2,0.7c0.2-0.5,0,0.4-0.3,1.4c-0.3,1-0.5,2.1-0.4,1.9c0.2-0.6,0.3-1.1,0.4-1.5c0.1-0.4,0.3-0.7,0.4-1
			c0.2-0.6,0.3-1,0.5-1.5c0.3-0.9,0.7-1.8,1.7-4.4c-0.3,0.7-0.5,1.6-0.8,2.4c-0.1,0.4-0.2,0.8-0.3,1.1c-0.1,0.3-0.1,0.6-0.1,0.9
			c0,0-0.1,0.1-0.1,0.3c-0.1,0.9,0.2,0.1,0.6,0.2c0.3-1.2,0.7-2.2,1.1-3.2c0.2-0.5,0.4-1,0.6-1.6c0.2-0.6,0.5-1.1,0.8-1.8
			c0-0.3-0.2,0.1-0.5,0.7c-0.3,0.6-0.7,1.4-0.9,2.1c0,0,0.1-0.2,0.1-0.4c0.1-0.2,0.2-0.5,0.3-0.8c0.2-0.6,0.5-1.2,0.5-1.2l-0.1,0.5
			c0,0,0.2-0.4,0.4-0.9c0.3-0.6,0.6-1.3,1-2c0.4-0.7,0.8-1.4,1-2c0.1-0.3,0.3-0.5,0.4-0.6c0.1-0.2,0.1-0.2,0.1-0.2
			c-0.3,0.5-0.5,0.9-0.6,1.2c-0.1,0.3-0.2,0.6-0.3,0.9c0.4-0.7,0.8-1.5,1.3-2.2c-0.3,0.1-0.3-0.1,0.1-0.8c2.1-3.6,3.7-5.4,4.7-6.6
			c0.1-0.1,0.2-0.3,0.3-0.4c-0.3,0.2,0.1-0.4,0.6-1.3c0.5-0.8,1.2-1.9,1.6-2.4c0.1,0.2,1.5-1.6,2.4-2.4c0.1-0.3,0-0.4-0.3-0.2
			c-0.3,0.2-0.8,0.5-1.3,1c-1.7,2.3-0.9,1.3-1.5,2.6c0,0-0.7,0.9-1.3,1.9c-0.3,0.5-0.6,1-0.9,1.3c-0.2,0.4-0.4,0.6-0.4,0.6l0.4-0.9
			c-0.3,0.5-0.7,0.9-1,1.3c-0.1,0.2-0.3,0.4-0.4,0.6c-0.1,0.2-0.2,0.4-0.3,0.6c-0.4,0.7-0.7,1.1-0.7,1c0.3-0.5,0.7-1.2,1.1-1.9
			c0.5-0.7,0.9-1.3,1.2-1.9l-0.9,1.2c0.7-1.2,0.9-1.4,1.2-1.7c0.3-0.3,0.6-0.6,1.6-2c-0.9,0.8,0.2-0.2,0.9-1.4
			c-0.4,0.4-1.3,1.5-2,2.4c-0.4,0.4-0.7,0.9-0.9,1.1c-0.2,0.2-0.3,0.3-0.2,0c0.4-0.7,1.4-1.8,2.4-2.9c0.5-0.6,1-1.1,1.5-1.7
			c0.5-0.5,0.9-1.1,1.2-1.5l0,0.1c1.1-1.2,1.9-2,2.4-2.7c0.6-0.7,1-1.1,1.4-1.6c0.3-0.2,0.6-0.5,0.9-0.8c0.3-0.3,0.6-0.6,0.9-0.9
			c0.6-0.6,1.3-1.2,1.8-1.7l0,0.1c0,0,0.1-0.1,0.3-0.2c0.1-0.1,0.4-0.3,0.6-0.5c0.4-0.3,0.8-0.7,0.8-0.7c-0.3,0.4-0.9,0.8-1.4,1.2
			c-0.6,0.5-1.2,1-1.9,1.6l0.3,0c-0.9,0.6-1.5,1.3-2,1.9c-0.3,0.3-0.5,0.6-0.8,0.9c-0.1,0.2-0.3,0.3-0.4,0.5
			c-0.1,0.2-0.2,0.3-0.4,0.5c0.4-0.5,0.9-1,1.4-1.5c0.5-0.5,1.1-1.1,1.6-1.6c1.1-1,2-1.8,2.1-2.1c0,0,0.1-0.1,0.2-0.1
			c0.1-0.1,0.3-0.2,0.4-0.3c0.3-0.2,0.6-0.4,0.6-0.4l0.5-0.5c1-0.6,0.2,0.3-1.4,1.7c-0.3,0.2-0.5,0.3-0.4,0.2
			c-0.3,0.4-0.7,0.7-1.1,1.2c-0.2,0.2-0.5,0.5-0.8,0.8c-0.3,0.3-0.7,0.7-1.1,1.1l0.9-1c-0.5,0.5-1.1,1-1.6,1.5
			c-0.2,0.2-0.5,0.5-0.7,0.7c-0.2,0.2-0.4,0.5-0.6,0.7c-0.8,0.9-1.4,1.6-1.7,2c2.9-3.1,6.1-6,9.2-8.4c0.3-0.5,0.8-1.1,1.1-1.5
			c0.4-0.5,0.7-0.9,0.8-1.2c0.5-0.4,1.1-0.9,1.8-1.3c0.6-0.4,1.3-0.9,2-1.3c0.3-0.2,0.7-0.4,1-0.6c0.3-0.2,0.7-0.4,1-0.5
			c0.6-0.4,1.2-0.7,1.8-0.9l-0.2,0.2c0.5-0.3,1-0.5,1.5-0.8c0.5-0.2,0.9-0.5,1.3-0.7c1.1-0.5-0.7,0.6,0.1,0.2c0,0,0.2-0.1,0.5-0.3
			c0.2-0.1,0.3-0.2,0.5-0.3c0.2-0.1,0.4-0.2,0.6-0.3c0.9-0.4,1.8-0.9,1.8-0.9c-0.1,0.1-0.9,0.5-1.8,1c-0.5,0.2-1,0.5-1.4,0.7
			c-0.5,0.2-0.9,0.5-1.3,0.7c0.3-0.1,0.8-0.4,0.6-0.4c-0.4,0.2-0.9,0.4-1.4,0.7c-0.5,0.3-1,0.6-1.5,0.9c-1,0.6-1.9,1.1-2.3,1.3
			c-0.7,0.5,1.4-1.1-1.1,0.5c-0.9,0.5-1.4,0.9-1.8,1.2c-0.3,0.3-0.5,0.5-0.5,0.6c0,0.1,0.7-0.4,1.2-0.7c0.6-0.3,1-0.6,0.6-0.2
			c1.3-0.8,1.7-1.3,3.5-2.2c-1.4,0.7-3,2.1-3.8,2.4c-0.3,0.2-0.6,0.4-0.8,0.6c-0.2,0.2-0.4,0.3-0.5,0.5c-0.3,0.3-0.4,0.4-0.4,0.5
			c0,0.2,0.5,0,1-0.4c-0.4,0,4.5-3.1,1.1-1.2c0.7-0.5,1.7-1.3,2.9-2c0.6-0.3,1.2-0.7,1.7-1.1c0.6-0.4,1.1-0.6,1.6-0.9l-0.1,0.1
			c0,0,0.6-0.3,1.3-0.7c0.6-0.4,1.3-0.7,1.3-0.7c-0.4,0.2-1.1,0.6-1.1,0.7c0,0,0.2-0.1,0.5-0.3c0.3-0.2,0.8-0.4,1.2-0.7
			c0.9-0.5,1.8-1,1.8-1c-1,0.5-0.7,0.4,0,0.1c0.7-0.3,1.8-0.7,2.3-0.9c0.3-0.3,1.8-1,0.3-0.5c-1.6,0.5-0.9,0.4-2.3,1l2-1l0.2,0
			c0,0,0.3-0.2,0.6-0.3c0.1-0.1,0.3-0.2,0.4-0.2c0.1-0.1,0.2-0.1,0.2-0.1c2.8-1-1.1,0.8,2.5-0.6l-0.6-0.1c0.5-0.2,1.1-0.4,1.6-0.5
			c0.6-0.1,1.2-0.3,1.7-0.5c0.6-0.1,1.2-0.3,1.8-0.4c0.6-0.1,1.2-0.2,1.8-0.4c0.6-0.1,1.2-0.2,1.7-0.4c0.6-0.1,1.1-0.2,1.6-0.3
			c0.5-0.1,1-0.2,1.5-0.3c0.2,0,0.4-0.1,0.7-0.1c0.2,0,0.4-0.1,0.6-0.1c-0.4,0.1-0.7,0.3-0.8,0.4c0,0.1,0.2,0.2,0.8,0.2
			c-0.2,0-0.4,0-0.6,0.1c-0.2,0-0.4,0.1-0.7,0.1c-0.5,0.1-1,0.2-1.5,0.3c-0.5,0.1-1.1,0.2-1.6,0.3c-0.5,0.1-1,0.3-1.5,0.4
			c-0.2,0,0.4-0.2,1.3-0.5c0.9-0.3,2.1-0.5,3.1-0.7c-0.5-0.1-1.8,0.2-3,0.5c-1.2,0.3-2.3,0.7-2.4,0.5c-5.2,1.2-3.8,1.4-8.1,2.6
			c0,0.2-1.2,0.6-1.3,0.8c1.3-0.3,5.7-2,8.6-2.7c-0.3,0.1-0.8,0.3-0.9,0.3c1-0.3,1.7-0.4,2.4-0.6c0.6-0.2,1.2-0.3,1.9-0.5l-0.2,0
			c1.2-0.4,1.6-0.4,1.9-0.4c0.3,0,0.4,0.1,1.2,0c0.3-0.1,0.9-0.2,1.5-0.3c0.5-0.1,1-0.2,0.8-0.2c0,0,0.7,0,1.4-0.1
			c0.3,0,0.7,0,0.9-0.1c0.3,0,0.4,0,0.4,0L517.3,9c1.5-0.1,1.9,0,3.3-0.2l0.1-0.2c0,0-1,0.1-1.9,0.1c-0.5,0-1,0.1-1.3,0.1
			c-0.2,0-0.3,0-0.4,0c-0.1,0-0.2,0-0.2,0c1.9-0.2,0.5-0.2,2.7-0.4c-2.4,0.4,1.7,0,1.9,0.2l1.6-0.1l-0.4,0.1c0.6,0,1,0,1.4,0
			c0.4,0,0.8-0.1,1.5-0.1c-0.2,0-0.4,0-0.6-0.1c-0.2,0-0.4,0-0.6,0c-0.4,0-0.7,0-1.1,0c-0.4,0-0.8,0-1.2,0c-0.4,0-0.9,0-1.4,0.1
			c0.4-0.1,0.9-0.1,1.4-0.1c0.5,0,1.1-0.1,1.6-0.1c0.5,0,1.1-0.1,1.5-0.1c0.4,0,0.8,0,1,0c0.8,0,1.5,0,2.2,0.1c0.3,0,0.7,0.1,1,0.1
			c0.4,0,0.7,0.1,1.1,0.1c-1.5-0.1-1.2,0.1-1.4,0.2c-0.1,0.1-0.6,0.2-3.6,0c0.1,0,0.6,0,0.8,0c-0.4-0.1-1.3-0.2-2.2-0.1
			c-1,0.1-2,0.2-2.6,0.2c0.3,0.1-1,0.2,1.3,0.2c-0.4,0,0.1-0.1,0.9-0.2c0.4,0,0.9-0.1,1.5-0.1c0.5,0,1.1,0,1.7,0.1L526.3,9
			c0,0,0.8,0,1.6,0.1c0.4,0,0.8,0,1.1,0.1c0.3,0,0.5,0,0.5,0l-0.3,0c1.2,0.3,3.3,0.2,5.5,0.6c1.6,0,7.4,1.3,5,0.5
			c0.9,0.3,1.8,0.5,2.7,0.7c0.9,0.2,1.9,0.4,2.9,0.6c0,0-0.6-0.2-1.3-0.4c-0.3-0.1-0.6-0.2-0.9-0.3c-0.2-0.1-0.4-0.1-0.4-0.1
			c0.8,0.1,1.3,0.2,1.7,0.3c0.4,0.1,0.6,0.1,0.9,0.2c0.5,0.1,0.9,0.1,2.1,0.4c0.2,0.2,0.7,0.4,0.2,0.3c1,0.4,2.1,0.7,3.2,1.1
			c1.1,0.5,2.3,0.9,3.3,1.3c1.1,0.5,2.1,0.9,3,1.3c0.9,0.4,1.7,0.8,2.2,1c0.7,0.3,1.2,0.6,1.6,0.9c0.4,0.3,0.8,0.6,1.2,0.8
			c0.4,0.3,0.9,0.6,1.4,0.9c0.6,0.4,1.2,0.8,2.1,1.3c0.4,0.2,0.3,0.1,0.4,0.1c0,0,0.1,0,0.4,0.2c0.2,0.1,0.6,0.4,1.1,0.8
			c0.1,0.1-2.3-1.4,0.2,0.4c0.5,0.3,1,0.6,1.5,1c0.5,0.4,1,0.8,1.5,1.2c0.5,0.4,1.1,0.9,1.6,1.3c0.5,0.5,1.1,0.9,1.7,1.4
			c0.3,0.3,0.6,0.6,0.9,0.9c0.3,0.3,0.6,0.6,0.9,0.9c0.5,0.6,0.9,0.9,0.6,0.8c-1.7-1.7-4.3-3.9-4.7-4.1c0.3,0.1-1.3-1.1,0.2-0.1
			c-1.4-1.2-1.9-1.5-2.3-1.8c-0.4-0.3-0.9-0.6-2.2-1.5c-0.2-0.1,1.2,1.1,1.8,1.5c-0.1,0.1-1.4-0.8-2.4-1.5c-0.5-0.3-0.9-0.6-1.1-0.7
			c-0.2-0.1-0.1,0,0.5,0.5c2.8,2,3.9,2.2,6.1,4.3c-0.5-0.3-1.1-0.8-1.7-1.3c-0.6-0.5-1.3-1-2-1.3c0,0,0.1,0.1,0.3,0.2
			c0.2,0.1,0.4,0.3,0.6,0.5c0.5,0.4,0.9,0.8,0.9,0.8s0.4,0.2,0.8,0.5c0.2,0.1,0.4,0.2,0.5,0.3c0.1,0.1,0.2,0.2,0.2,0.2l-0.1,0
			c0.8,0.7,1.4,1.3,1.9,1.7c0.2,0.2,0.5,0.4,0.7,0.5c0.2,0.2,0.4,0.3,0.6,0.5c0.4,0.3,0.8,0.6,1.2,0.9c0.5,0.4,1,0.8,1.7,1.5
			c-1.4-1.7,0.7,0.1-0.4-1.2c0.9,0.9,1.7,1.8,2.2,2.4c0.3,0.3,0.5,0.6,0.6,0.8c0.1,0.2,0.2,0.3,0.1,0.4c-0.2-0.2-0.4-0.4-0.6-0.6
			c-0.2-0.2-0.3-0.3-0.4-0.4c-0.3-0.2-0.4-0.4-0.6-0.5c-0.3-0.2-0.3-0.2-0.3-0.2c-0.1,0-0.1,0.1-1.8-1.4c0.2,0.3,0,0.2-0.1,0.2
			c-0.1,0,0,0.2,0.9,1.2c2.2,2-0.5-0.8,1.7,1.3c0.1,0.1,0.2,0.3,0.1,0.2c1,0.9,1,1.2,2.2,2.4l-0.3-0.3c0.2,0.2,0.3,0.4,0.4,0.5
			c0.1,0.2,0.2,0.3,0.3,0.4c0.2,0.3,0.4,0.5,0.6,0.7c0.4,0.4,0.7,0.7,1.2,1.5c-0.1-0.3,0.1-0.1,0.4,0.3c0.3,0.4,0.8,1,1.1,1.4
			c-1-1.5-1.3-2.5-3.6-5.2c-0.4-0.2-0.3,0-1.3-1l1.5,1.7c-0.3-0.4-0.6-0.6-0.9-0.9l-1.4-1.7c1.9,2.1,1.2,1,2.1,1.8
			c0.2,0.2,0.4,0.5,0.5,0.6c0.1,0.2,0.3,0.3,0.4,0.5c0.2,0.3,0.4,0.5,0.5,0.6c0.3,0.3,0.5,0.5,0.9,1.2c-0.2,0,2.6,4.2,4.1,6.8
			c-0.2-0.4-0.6-0.9-0.7-1.2c-1.3-1.7,0.7,1.3,0.6,1.4l0.9,1.3c-0.2-0.2-0.4-0.6-0.1,0c1.1,1.8,1.2,1.6,2.2,3.5c0,0.2-1-1.3-0.5-0.1
			c0.1,0.2,0.2,0.7,0.5,1.4c0.3,0.7,0.7,1.7,1.3,2.9c0.1,0.1,0.2,0.3,0.3,0.6c0.1,0.3,0.3,0.6,0.4,1c0-0.1-0.1-0.2-0.1-0.3l0.6,1.8
			c-0.4-0.7-0.7-1.4-0.9-2.2c-0.3-0.8-0.6-1.5-1-2.2l-0.2,0c-0.5-1.1-1.3-2.6-1.8-3.2c0.4,0.8,0.7,1.3,1,1.9c0.3,0.5,0.5,1.1,1,2
			c0,0.3-0.7-1-0.8-1.2l0.2,0.2c-0.4-1.2-0.9-2-1.4-2.8c-0.3-0.4-0.5-0.9-0.8-1.4c-0.3-0.5-0.7-1.1-1-1.7c-0.2-0.4-0.1-0.2,0-0.1
			c-0.7-1.1-1.4-2.1-2-3.1l-0.5-0.8c-0.2-0.3-0.4-0.5-0.5-0.7c-0.4-0.5-0.7-1-1.1-1.4l0.5,0.6c-0.3-0.3-0.6-0.7-0.9-1.2
			c-0.4-0.4-0.8-0.9-1.3-1.5c-0.2-0.3-0.5-0.5-0.7-0.8c-0.1-0.1-0.3-0.3-0.4-0.4c-0.1-0.1-0.3-0.3-0.4-0.4c-0.5-0.6-1.1-1.1-1.7-1.7
			l-0.1,0c0.1,0.1,0,0-0.3-0.3c-0.2-0.3-0.5-0.6-0.8-0.8l0,0c-0.6-0.6-1.2-1.1-1.7-1.6c-0.6-0.5-1.1-0.9-1.6-1.4
			c0.3,0.3,0.6,0.7,1,1.1c0.4,0.3,2.4,2.5,2.3,2c0.4,0.5,1,1.2,1.6,1.8c0.6,0.6,1.1,1.2,1.4,1.6c-0.5-0.7-0.3-0.5,0.1-0.1
			c0.4,0.4,1,1.1,1.1,1.2c0.1,0.3,0.6,0.8,0.9,1.3c0.3,0.5,0.6,0.8,0.5,0.8c0.2,0.3-0.4-0.8-1-1.3c-0.7-0.7-0.1,0,0.3,0.7
			c0.5,0.7,0.9,1.3,0.1,0.4c1.9,2.4,4,5.7,5.6,8.4l-0.8-1.5c0.7,1.2,2.2,4.1,2.3,4.4c-0.5-0.9-1-2-1.7-3.1c-0.2,0,1.5,2.8,1.4,3
			c0,0,0.1,0.2,0.3,0.5c0.2,0.3,0.4,0.7,0.6,1.2c0.5,0.8,0.9,1.7,0.9,1.7l-0.7-1.5c0.1,0.2,0.3,0.6,0.5,1.1c0.1,0.2,0.2,0.5,0.3,0.8
			c0.1,0.3,0.2,0.6,0.3,0.9c0.2,0.6,0.5,1.3,0.7,2c0.3,0.7,0.4,1.4,0.6,2c-0.4-0.7-0.7-1.6-1.1-2.7c-0.4-1.1-0.8-2.3-1.5-3.5
			c-0.9-1.8,0.3,1.2-0.6-0.5c0.1,0.5,0.7,1.6,1,2.1l0.2,0.7c-0.4-0.7-1-1.9-1.6-3.2c-0.3-0.7-0.7-1.3-1-1.9c-0.4-0.6-0.7-1.2-1-1.8
			c0.1,0.2,0.2,0.3,0.3,0.4c-0.2-0.4-0.4-0.9-0.6-1.3c-0.2-0.4-0.5-0.8-0.7-1.3c-0.5-0.8-1-1.6-1.5-2.4c0.5,0.9,0.7,1.2,1,1.6
			c0,0.1-1-1.4-1.4-1.9c0.9,1.5,0.1,0.3,0.6,1.3c-0.3-0.5-0.6-0.9-0.9-1.3c-0.3-0.5-0.6-0.9-1-1.5c-0.3-0.6,0.4,0.4,0.5,0.2
			c-0.4-0.6-0.7-1-1-1.5c-0.3-0.5-0.7-1.1-1.4-1.9c1.7,2.2-0.7-0.4-1.3-1.1l0.3,0.4c-0.3-0.3-0.6-0.6-0.8-0.9
			c-0.2-0.3-0.4-0.5-0.6-0.8c0.8,0.8,1.4,1.7,1.3,1.4c-0.2-0.3-0.5-0.6-0.7-0.9c-0.3-0.3-0.5-0.6-0.8-0.9l0.6,0.5
			c0,0-0.6-0.7-1.2-1.4c-0.6-0.7-1.3-1.4-1.3-1.4c-0.5-0.3-1.3-0.9-1.8-1.2c-0.5-0.7-1.5-1.5-2.1-2l0.3,0.2
			c-0.3-0.3-0.6-0.7-1.1-1.1c-0.4-0.4-0.9-0.8-1.3-1.1c-0.4-0.4-0.8-0.7-1.2-0.9c-0.3-0.2-0.6-0.4-0.6-0.4c-0.2-0.2,0.1,0,0.6,0.3
			c0.5,0.3,1.1,0.8,1.6,1.1c0.5,0.3,0.8,0.5,0.6,0.3c-0.1-0.1-0.3-0.3-0.7-0.7c-0.4-0.3-1-0.9-1.8-1.5c-2.5-1.9-1.7-0.9-3.2-1.9
			c0,0,0.1,0,0-0.1c-1.1-0.8-1.3-0.8-2.2-1.4c0.7,0.5,1.6,1.2,1.9,1.4c-0.2-0.1-0.8-0.5-1.4-0.9c-0.6-0.5-1.4-0.9-1.8-1.1
			c1.3,0.5-2.2-1.5-1.2-1c-0.6-0.4-1.2-0.7-1.7-1.1c-0.6-0.3-1.2-0.7-1.7-0.9c-1.1-0.5-2.1-0.9-2.8-1.2c-0.8-0.5-1.5-0.8-2.4-1.2
			c-0.4-0.2-0.9-0.4-1.5-0.6c-0.5-0.2-1.1-0.4-1.8-0.7c0.4,0.2,1.2,0.4,1.8,0.7c1.6,0.5-2.8-1.2-0.3-0.4c-0.5-0.2-0.1,0.1,0.5,0.3
			c0.9,0.3,1.8,0.7,1.6,0.5c0,0-0.1-0.1-0.3-0.2c-0.2-0.1-0.5-0.2-0.8-0.4c-0.6-0.3-1.1-0.5-1.1-0.5l0.8,0.3c0,0-0.8-0.4-1.7-0.8
			c-0.4-0.2-0.8-0.4-1.2-0.5c-0.3-0.1-0.5-0.2-0.5-0.2c-0.1,0,0.2,0.2,0.4,0.2c-4-1.6-8.9-2.6-12.6-3.2c-0.1,0-0.3,0.1-0.6,0.1
			c-0.3,0-0.7,0-1.2-0.1c-0.9-0.1-2.2-0.2-3.5-0.3c-0.6,0-1.3-0.1-2-0.1c-0.2,0-0.3,0-0.5,0c-0.2,0-0.3,0-0.5,0c-0.3,0-0.6,0-1,0
			c-1.2,0-2.3,0-3.1,0.1c0.8-0.2,1.3-0.4,0.8-0.5c0.7,0,2.1-0.2,3.6-0.1c0.2,0.1,2.1,0.3,0.9,0.3c4.3,0.3-0.6-0.3,0.7-0.4
			c-0.6,0-1.2-0.1-1.7-0.1c-0.5,0-1,0-1.5,0c-1,0-1.9,0-2.7,0.1c-0.8,0.1-1.6,0.1-2.4,0.2c-0.2,0-0.4,0-0.6,0l-0.6,0.1
			c-0.4,0-0.7,0.1-1.1,0.1l-0.1-0.1c0,0-0.6,0.1-1.1,0.1c-0.3,0-0.6,0.1-0.8,0.1c-0.2,0-0.3,0.1-0.3,0.1c0.9-0.1,1.4,0,1.3,0
			c-0.1,0.1-0.7,0.1-1.9,0.3l0.3-0.1c-0.7,0-1.7,0.2-2.8,0.3c-1.1,0.2-2.3,0.5-3.3,0.6c0,0-0.1,0-0.2,0.1c-0.1,0-0.3,0.1-0.5,0.2
			c-0.3,0.1-0.7,0.2-0.7,0.2c-2,0.5-2.2,0.2-2.9,0.2c-1.6,0.4-2.8,0.8-3.9,1.3c-1.1,0.5-2.1,0.9-3.1,1.4c-0.3,0.1-0.7,0.2-1.3,0.4
			c-0.3,0.1-0.6,0.2-0.8,0.3c-0.3,0.1-0.5,0.2-0.8,0.3c-1,0.4-1.5,0.6-0.4,0c-0.7,0.3-1.1,0.6-1.5,0.9c-0.4,0.3-0.7,0.5-1,0.7
			c-0.3,0.3-0.8,0.5-1.4,0.9c-0.3,0.2-0.7,0.3-1.1,0.5c-0.4,0.2-0.9,0.5-1.5,0.7l1.1-0.8c-2.1,1.2-4.6,2.8-6.7,4.4
			c-0.5,0.4-1,0.8-1.5,1.1c-0.5,0.4-0.9,0.7-1.3,1.1c-0.8,0.6-1.5,1.2-1.9,1.5c0.5-0.8-0.7,0.1-2.2,1.3c-1.4,1.2-3.1,2.6-3.6,2.8
			c0.2-0.1-1,1.3-1.2,1.5c-0.2,0.1-0.4,0.3-0.6,0.5c-0.2,0.2-0.4,0.5-0.6,0.8c0.7-0.7,0.5-0.4,0.5-0.2c0,0.2,0.1,0.1,1.3-1.3
			c-0.3,0.4-0.6,0.8-0.9,1.2c-0.3,0.5-0.6,0.9-1,1.5c-0.8,1-1.7,2.4-3,3.9l-0.1-0.2l2-2.5c-0.2,0.1,0-0.2,0.3-0.6
			c0.3-0.4,0.6-0.8,0.8-1.1c-0.5,0.6-0.9,1-1.1,1.2c-0.3,0.3-0.4,0.5-0.5,0.6c-0.2,0.2-0.2,0.1-0.2,0c0-0.2,0.1-0.4-1.8,2
			c-0.2,0.6-0.1,0.2-0.9,1.5c0.4-0.6,0.4-0.8-0.3,0.2l-0.5,1c-0.7,0.8-0.3,0,0.2-0.7c0.5-0.8,1-1.6,0.4-0.9c0.3-0.5,0.7-1.1,1.1-1.7
			c0.4-0.6,0.8-1.2,1.2-1.7c0.7-1,1.2-1.7,0.8-1.5c-0.3,0.4-0.6,0.7-0.8,1c-0.2,0.3-0.4,0.6-0.6,0.8c-0.3,0.5-0.6,0.9-0.8,1.2
			c-0.4,0.8-0.9,1.6-2.1,3.2l-0.3,0.3c-0.7,1.2-0.7,1.5-1,2.2c-0.1,0-0.3,0.3-0.8,1.1c-0.2,0.6-0.5,1.1-0.7,1.5
			c-0.2,0.5-0.4,0.9-0.6,1.4c-0.4,0.9-0.7,1.8-1.1,2.8c0.6-1.3,1.1-2.3,1.5-3c0.4-0.7,0.8-1.3,1.1-1.8c0.7-1.1,1.4-2.2,3-4.7
			c-0.5,0.8-2.7,4.4-2.6,4.8l-0.1-0.1c-0.9,1.7-1.7,3.5-2.8,5.7c0,0,0.1-0.4,0.3-0.7c0.1-0.3,0.3-0.7,0.3-0.7
			c-0.4,0.7-0.6,1.4-0.9,2.1c-0.3,0.6-0.6,1.2-0.9,1.8c-0.5,1.2-1,2.2-1.3,3.5c0.3-0.9,0.6-1.5,0.8-2.1c-0.6,1.6-1.2,3.6-1.8,5.3
			c0,0-0.2,0.9-0.4,1.9c-0.1,0.5-0.2,0.9-0.2,1.3c-0.1,0.3-0.1,0.6-0.1,0.6c-0.1-0.1-0.6,2.3-0.5,1.1c-0.2,0.7-0.3,1.2-0.4,1.7
			c-0.1,0.5-0.1,1-0.2,1.4c-0.1,0.9-0.1,1.6-0.2,2.3c-0.3,1.4-0.2,0.8-0.1-0.2c0.1-1,0.3-2.3,0.2-2.5c-0.2,0.9-0.4,1.9-0.5,2.8
			c-0.1,0.9-0.2,1.9-0.3,2.8c-0.1,0.9-0.1,1.7-0.1,2.5c0,0.7-0.1,1.4,0,1.9c0.1-0.8,0.1-1.2,0.2-1.1c0,0.1-0.1,0.5-0.1,1
			c0,0.5,0,1.1,0,1.5l0.1,0.6c-0.1,1.4-0.2,1.2-0.3,0c0,0.3,0,0.7,0,1.1c0,0.4,0.1,0.7,0.1,1.1c0.1,0.8,0.1,1.5,0,2.2
			c-0.1-0.6-0.1-1.2-0.1-1.8c0-0.6-0.1-1.3,0-1.9c0-1.2,0.1-2.2,0-2.8c0,1.2,0,2.1-0.1,2.9c0,0.4,0,0.8,0,1.1c0,0.3,0,0.7,0,1
			c0,0.7-0.1,1.4,0,2.4c0.1,1,0.1,2.1,0.3,3.7c-0.1,0.1-0.3-1-0.1,0.2c0.4,2.8,0.3,0.7,0.6,1.5c-0.2-1.1-0.3-1.8-0.3-2.5
			c0-0.7,0-1.2,0-1.8l0.1,0.6c0,0.1,0,1.4,0,1.8l0.2,0.3c-0.1-0.1-0.2,0.4-0.1,1.2c0,0.4,0,0.8,0.1,1.2c0,0.2,0,0.4,0.1,0.7
			c0,0.2,0.1,0.4,0.1,0.6c-0.1-0.8-0.1-1.2,0-1.3c0-0.2,0.1-0.2,0.2-0.4c0.3,1.2,0.3,1.8,0.4,2.5c0,0.3,0.1,0.7,0.1,1.1
			c0.1,0.4,0.2,0.9,0.4,1.6c-0.1-0.2-0.6-2.4-0.3-0.5c0.4,1.6,0.5,1.4,0.8,2.4c-0.5-1.2-0.5-0.8-1.1-2.1c-0.1-0.4-0.1-0.6-0.2-0.9
			c0-0.2-0.1-0.4-0.1-0.6c-0.1-0.3-0.1-0.4-0.1-0.6c-0.1-0.3-0.1-0.6-0.4-2l0.3,2.4c-0.5-2.5-0.5-1.8-0.6-1.9
			c0.6,4.3,0.9,3.1,1.4,5.8c0.4,1.3-0.6-2.5,0-0.5c0.1,0.6,0.2,1,0.3,1.2c0.1,0.2,0.1,0.3,0.2,0.4c0.1,0.2,0.2,0.4,0.6,1.7l-0.2-0.4
			c0.1,0.9,0.5,1.7,0.8,2.6c0.2,0.5,0.3,0.2,0.5,0.2c0.1,0,0.2,0.2,0.4,0.6c0.1,0.2,0.2,0.5,0.3,0.8c0.1,0.2,0.1,0.4,0.2,0.6
			c0.1,0.2,0.2,0.5,0.3,0.7c-0.1-0.2-0.2-0.3-0.2-0.2c0,0,0-0.1-0.1-0.2c-0.1-0.1-0.2-0.2-0.3-0.4c-0.3-0.3-0.6-0.8-1-1.3
			c-0.4-0.5-0.7-0.9-1-1.3c-0.1-0.2-0.2-0.3-0.3-0.4c-0.1-0.1-0.1-0.2-0.1-0.2c0.1,0.6,0.4,1.1,0.6,1.7c0.2,0.6,0.4,1.2,0.6,1.8
			c0.4,1.2,0.9,2.4,1.4,3.6c0.3,0.6,0.5,1.2,0.8,1.8c0.1,0.3,0.3,0.6,0.4,0.9l0.2,0.5l0.2,0.5c0.3,0.6,0.6,1.2,0.9,1.8l0.5,0.9
			l0.5,0.9c0.2,0.6-0.4-0.2-0.9-1.1c-0.5-1-1.1-2-1.1-1.9c0,0-0.1-0.1-0.2-0.4c-0.1-0.2-0.2-0.5-0.4-0.8c-0.2-0.6-0.5-1.2-0.5-1.2
			c0,0,0.2,0.3,0.4,0.7c0.1,0.2,0.2,0.4,0.3,0.7c0.1,0.2,0.3,0.5,0.4,0.7c0.5,0.9,0.8,1.5,0.4,0.4c-2-3.9-2.7-5.8-4.3-9.7
			c0.1,0.7,0.5,2,1.1,3.4c0.3,0.7,0.6,1.5,0.9,2.2c0.3,0.7,0.6,1.5,0.9,2.1c-0.4-1.1-0.9-1.9-1.3-2.8c0.2,0.6,0.5,1.2,0.8,1.8
			c0.3,0.6,0.5,1.2,0.8,1.9c0.3,0.6,0.6,1.2,0.9,1.9c0.3,0.6,0.6,1.3,1,1.9l0.4,0.5c-0.2-0.4-0.5-0.8-0.7-1.2
			c-0.2-0.4-0.3-0.7-0.5-1c-0.3-0.6-0.4-0.9-0.5-1c0.3,0.6,0.6,1.1,0.9,1.7c0.3,0.5,0.6,0.9,0.8,1.3c0.5,0.7,0.9,1.2,1,1.2l-0.2-0.4
			l0.5,0.8C463.2,121,463.5,121.5,463.8,122z M595.2,100.3c0,0.2,0,0.3,0,0.4C595.2,100.6,595.1,100.7,595.2,100.3z M452.3,73.1
			c-0.6,3.5-0.7,7-0.8,10.4c0-0.4,0-0.8,0.1-1.1c0-0.4,0.1-0.7,0.1-1.1c0.1-0.7,0.1-1.3,0.2-1.8c0.2-1.1,0.3-1.9,0.4-2.1
			c0.1-0.3,0.1,0,0.1,0.9c0,0.5-0.1,1.1-0.1,1.9c0,0.8,0,1.9-0.1,3.1l0,0.7c0-0.3,0-0.7,0-1.1c0-0.4,0-0.9,0.1-1.4
			c0-1,0-2.1,0.1-3.2c0-0.9-0.1-2.7,0-4.3c0-0.8,0-1.6,0-2.1c0-0.5,0-0.9,0-0.9c-0.1,0.3-0.2,0.7-0.2,1.1c0,0.4-0.1,0.9-0.2,1.5
			L452.3,73.1z M453.4,70.8c0.4-1.9,0.2-1.5,0.2-1.8c-0.1,0.7-0.2,1.4-0.3,2C453.3,70.7,453.4,70.6,453.4,70.8z M453.5,69.1
			c0,0.2-0.1,0.4-0.1,0.5L453.5,69.1z M456.1,107c0-0.1,0-0.1-0.1-0.2c0.1,0.4,0.3,0.9,0.4,1.4C456.4,107.9,456.3,107.6,456.1,107z
			 M455.1,103.1l-0.3-0.4c0.1,0.4,0.2,0.8,0.3,1.3C455.2,103.8,455.2,103.6,455.1,103.1z M453.2,90.4c-0.3-0.8-0.5-3.5-0.7-3.6
			c-0.1-0.2-0.1,0.4,0,1c0,0.7,0.1,1.5,0.2,2.3c0,0,0.1,0.2,0.1,0.4c0-0.8,0-1.3,0.1-1c-0.1,1,0.1,1.5,0.2,2c0.1,0.5,0.3,0.9,0.4,2
			C453.7,94.2,453.3,91.1,453.2,90.4z M570.5,26.6c0,0.1,0.2,0.2,0.4,0.5l-1.3-0.9c-0.5-0.4-1-0.9-1.5-1.3c-0.5-0.4-1-0.8-1.5-1.2
			c-0.5-0.4-1-0.8-1.5-1.1c-0.5-0.3-1-0.6-1.6-0.9c-0.5-0.3-0.8-0.6-1.1-0.9c-0.3-0.2-0.5-0.5-0.8-0.7c0.5,0.3,1,0.6,1.3,0.8
			c3.1,1.7,3.8,2.4,4.3,2.9c0.3,0.3,0.5,0.5,1,0.9C568.7,25.2,569.4,25.8,570.5,26.6z M542.1,12c0.3,0.1,0.4,0,0.4,0
			c-6.2-1.1-11.3-1.4-14.7-1.6c0.2,0,0.5,0.1,0.9,0.1c0.4,0.1,0.9,0.1,1.4,0.2c0.5,0.1,1,0.1,1.5,0.2c0.2,0,0.5,0.1,0.7,0.1
			c0.2,0,0.4,0.1,0.6,0.1c0,0-0.3,0-0.6,0c-0.3,0-0.6,0-0.6,0l-0.8-0.2l-2.2,0c0.6,0.2,2.4,0.3,3.5,0.5c0.1,0,1,0,2.1,0.1
			c0.5,0,1.1,0.1,1.6,0.1c0.5,0.1,0.9,0.1,1.2,0.1c0,0-0.2,0-0.5-0.1c-0.3-0.1-0.6-0.2-1-0.2c-0.7-0.1-1.5-0.3-1.5-0.3
			c0.8,0.1,4.8,0.7,6.3,1.1c0,0-0.6-0.3-1.3-0.4c-0.7-0.2-1.5-0.3-1.7-0.2c-0.3-0.2,2.8,0.4,0.9-0.1c1.2,0.1,2.7,0.5,4.1,0.8
			c0.2,0,0.4,0.1,0.5,0.1c0.2,0.1,0.3,0.1,0.5,0.2c0.3,0.1,0.7,0.2,1,0.3c0.6,0.2,1.2,0.4,1.6,0.5l0.2,0.3c1.8,0.7,1.3,0.1,3.5,1
			c-2.7-0.9,0.4,0.4-1.8-0.3c0.6,0.3-0.1,0.2,2,1c0.9,0.2,1.5,0.5,2,0.7c0.3,0.1,0.5,0.3,0.8,0.4c0.3,0.1,0.6,0.3,1.1,0.4
			c1,0.6-1.2-0.3,0.9,0.6c0.6,0.2,1.1,0.4,1.4,0.5c0.3,0.1,0.6,0.2,0.7,0.2c0.3,0.1,0.4,0,0.5-0.1c-1.1-0.6-1.8-0.8-2.4-1
			c-0.6-0.2-1.2-0.4-2.1-0.8c0,0,0.1,0,0.2,0.1c0.1,0,0.3,0.1,0.4,0.1c0.4,0.1,0.8,0.3,1.3,0.4c0.5,0.2,1,0.3,1.3,0.5
			c0.2,0.1,0.3,0.1,0.4,0.2c0.1,0,0.2,0.1,0.2,0.1c-0.6-0.4-1.2-0.6-1.6-0.8c0.4,0.2,0.7,0.3,1.1,0.4c0.3,0.1,0.6,0.2,0.9,0.3
			c0.3,0.1,0.6,0.2,0.9,0.3c-0.5-0.3-1-0.5-1.5-0.8c-0.5-0.2-0.9-0.4-1.3-0.6c-0.8-0.4-1.3-0.6-1.5-0.8l0.3,0c-0.7-0.5-2-0.8-2.6-1
			c-0.5-0.2-1-0.4-1.4-0.5c-0.5-0.2-0.9-0.3-1.3-0.4c-0.8-0.2-1.4-0.4-1.6-0.6l0.8,0.2c-0.6-0.2-1.1-0.4-1.5-0.5
			c-0.4-0.1-0.8-0.2-1.2-0.3c-0.4-0.1-0.8-0.2-1.3-0.4c-0.2-0.1-0.5-0.1-0.8-0.2C542.8,12.2,542.5,12.1,542.1,12z M467.2,37.8
			c0.6-0.5,1.3-1,2.4-2.1c1.1-1.1,2.6-2.7,5.2-5.2l-0.4,0.4c0.7-0.6,1.3-1.2,2-1.8c0.7-0.6,1.3-1.2,2-1.9c0.7-0.6,1.4-1.2,2.2-1.9
			c0.8-0.6,1.6-1.2,2.6-1.8c-0.8,0.7-1.2,1-1.6,1.4c-0.4,0.4-0.8,0.8-1.6,1.6l1.7-1.5c-0.4,0.5,1.4-0.9,2.8-1.8l-1,1.1
			c-0.4,0.3-1.2,0.7-1.8,1.2c-0.6,0.5-1.1,0.9-1,0.9c0.2-0.2-0.5,0.3-1.5,1c-0.9,0.7-2.2,1.7-2.9,2.4c0.3,0,3.7-3.1,2.3-1.5
			c0.3-0.3,0.6-0.6,0.8-0.8c0.2-0.2,0.4-0.3,0.7-0.5c0.4-0.3,0.8-0.6,1.6-1.2c-1.3,1.2-0.2,0.5-1.2,1.4c0,0,0.6-0.5,1.2-1
			c0.6-0.5,1.2-0.9,1.2-0.9c0,0-0.2,0.2-0.5,0.4c-0.3,0.2-0.6,0.6-1,0.8c-0.6,0.5-1,0.9,0.1,0.2c0.2-0.2,0.6-0.5,0.9-0.8
			c0.4-0.3,0.8-0.6,1.2-0.9c0.8-0.6,1.5-1.1,1.4-1.2l0.1,0c1.9-1.2,0.7-0.8,3.1-2.2c0,0-0.1,0-0.4,0.1c-0.2,0.1-0.6,0.3-1,0.6
			c-0.3,0.2-0.5,0.4-0.8,0.6c-0.1,0.1-0.3,0.2-0.5,0.4c-0.2,0.2-0.5,0.4-0.8,0.6c-0.4,0.2,0.1-0.1,0.5-0.4c0.4-0.3,0.7-0.5,0.2-0.3
			c-0.6,0.2-3.7,2.8-2.9,1.8l1.9-1.3c0-0.1,0.3-0.4,0.6-0.7c0.3-0.3,0.7-0.5,0.6-0.6c0.6-0.4,1.2-0.8,1.8-1.1
			c0.6-0.4,1.2-0.7,1.8-1.1c0.5-0.4-0.6-0.1,1.6-1.2c0.5-0.2,1.1-0.4,1.8-0.8c0.4-0.2,0.8-0.4,1.2-0.6c0.4-0.2,0.8-0.4,1.3-0.6
			c0.4-0.2,0.9-0.4,1.3-0.6c0.4-0.2,0.8-0.4,1.2-0.5c0.8-0.3,1.4-0.6,1.9-0.8c0,0,0.4-0.2,0.8-0.4c0.4-0.2,0.8-0.3,0.8-0.3
			c-0.2-0.1-3.2,1.2-2.2,0.7c0,0,0.7-0.3,1.3-0.5c0.7-0.2,1.3-0.5,1.3-0.5l-0.2,0.1c0.9-0.3,1.8-0.7,2.6-1c-0.8,0.4-2.7,1-2.3,1.1
			c0.6-0.2,1-0.3,1.4-0.4c0.4-0.1,0.7-0.2,1.3-0.4c-0.3,0.1-0.5,0.2-0.4,0.2c2.6-0.6,2.4-0.9,3-1.2c0.6-0.2,0.8-0.3,0.7-0.3
			c-0.1,0-0.5,0-1,0.2c-1,0.2-2.2,0.5-2.1,0.4c0,0,0.5-0.1,1.2-0.4c0.4-0.1,0.8-0.2,1.2-0.4c0.5-0.1,0.9-0.2,1.4-0.3
			c0.5-0.1,1-0.2,1.4-0.3c0.2-0.1,0.4-0.1,0.6-0.2c0.2,0,0.4-0.1,0.6-0.1c0.7-0.1,1.2-0.2,1.2-0.2c-0.7,0.2-1.3,0.4-1,0.4
			c1.9-0.2,0.1,0.1,2.7-0.3c-0.1-0.1,0.7-0.3,1.8-0.5c0.6-0.1,1.2-0.2,1.8-0.3c0.6-0.1,1.2-0.1,1.7-0.2c0.9,0,1.1,0.1-0.9,0.2
			c0.1,0.1,0.8,0.1,1.6,0c0.8-0.1,1.7-0.1,2.2-0.1c0.5-0.1,1.5-0.1,2.1-0.2c-0.8-0.1-0.5-0.2,1.3-0.3l0.1,0c-0.7,0-1.5,0-2.3,0
			c-0.8,0-1.7,0-2.5,0c-1.7,0.1-3.2,0.2-4.1,0.4l0.5-0.2c-0.8,0.1-1.7,0.2-2.5,0.3c-0.2,0-0.4,0.1-0.6,0.1c-0.2,0-0.4,0.1-0.6,0.1
			c-0.4,0.1-0.8,0.2-1.2,0.3c-0.8,0.2-1.5,0.3-2.1,0.4c-0.6,0.1-1.1,0.2-1.5,0.2c0.1-0.2-0.6,0.1-0.6-0.1c0,0-0.6,0.2-1.2,0.3
			c-0.6,0.2-1.1,0.4-1.1,0.4l0.5-0.2c0,0-1,0.3-2,0.6c-0.5,0.1-1,0.3-1.3,0.4c-0.4,0.1-0.6,0.2-0.6,0.2l0.1-0.1
			c-0.9,0.4-1.7,0.7-2.4,1.1c-0.7,0.4-1.3,0.7-1.8,0.9c0,0.1,0.2,0.1-0.4,0.4c-0.3,0.1-0.6,0.3-0.8,0.4c-0.2,0.1-0.4,0.2-0.6,0.3
			c0,0,0,0,0,0l0,0c-0.9,0.4-1.6,0.5-2.7,1c0,0,0.9-0.4,1.7-0.8c0.4-0.2,0.9-0.4,1.2-0.5c0.3-0.2,0.5-0.2,0.5-0.2
			c0.2-0.2-0.1-0.3-1.9,0.4c0.7-0.3,0.9-0.6,0.1-0.2c-0.1,0.1-2.2,1.1-1.4,0.8c-1.6,0.8-3.8,1.8-6,3.1c-0.3,0.2-0.6,0.3-0.9,0.5
			c-0.3,0.2-0.6,0.4-0.9,0.5c-0.6,0.4-1.1,0.7-1.7,1.1c-0.6,0.4-1.1,0.8-1.7,1.2c-0.6,0.4-1.1,0.8-1.6,1.3c1.5-1.2,0.9-0.8,0.3-0.4
			c-0.3,0.2-0.6,0.4-0.6,0.4c0,0,0.1-0.1,0.3-0.2c0.2-0.2,0.5-0.4,0.9-0.7c-0.3,0.2-0.6,0.4-0.8,0.5c-0.2,0.2-0.4,0.3-0.6,0.5
			c-0.3,0.3-0.6,0.5-0.8,0.7c-0.5,0.5-1,0.9-2.1,2c-0.1,0.1,0.2-0.2,0.6-0.6c0.4-0.4,0.9-0.8,1.2-1.1c-1,0.8-1.9,1.6-2.8,2.3
			c-0.9,0.8-1.6,1.6-2.3,2.3c-0.4,0.4-0.8,0.8-1.1,1.2c-0.4,0.4-0.7,0.8-1.1,1.2c-0.4,0.4-0.8,0.8-1.1,1.3c-0.4,0.4-0.8,0.9-1.2,1.4
			l-0.3,0c-0.3,0.4-0.6,0.7-0.9,1.2C467.8,36.9,467.5,37.3,467.2,37.8z M461.8,46.1c-0.2,0.4-0.5,0.8-0.7,1.3
			c-0.2,0.4-0.5,0.9-0.7,1.3c0-0.1,0.1-0.2,0.1-0.3l-1.2,2.6c0.9-1.5,1.6-2.5,0.5-0.2c0-0.2-0.4,0.4,0-0.4c-0.2,0.4-0.5,0.8-0.7,1.3
			c-0.2,0.5-0.5,1-0.7,1.5c-0.4,0.9-0.7,1.5-0.3,1.2c1.1-3,0.6-0.5,1.5-2.9c-0.4,1.3-1,2.5-1.4,3.6c0.2-0.6,0.1-0.6-0.2-0.2
			c-0.2,0.4-0.6,1.2-1,2.1c-0.3,0.8-1.1,3-1.5,4.4c0.3-0.4,0,0.8,0.8-1.4c-0.1,0.4-0.3,0.9-0.5,1.5c-0.2,0.6-0.4,1.3-0.6,2
			c0.1-0.6,0.4-1.6,0.3-1.5c-0.4,0.9-0.7,2-0.9,2.5c-0.1,0.5-0.2,1-0.3,1.4c0-0.1,0.1-0.3,0.1-0.3l-0.2,1.6c0.4-2.1,0.3-1,0.4-0.9
			c-0.2-0.1-0.3,1.4-0.5,2.1l0.6-1.5c0,0.4-0.2,1-0.4,1.6c-0.1,0.5-0.2,0.9-0.1,0.7c0.1-0.4,0.2-0.8,0.3-1.2c0.1-0.4,0.2-0.7,0.2-1
			c0.1-0.6,0.3-1.2,0.4-1.8c0.3-1.1,0.6-2.2,1-3.7l-0.5,1.2c0.2-0.8,0.4-1.4,0.5-1.8c0.2-0.4,0.3-0.7,0.4-0.9c0.1-0.3,0.3-0.5,0.5-1
			c0.1-0.2,0.2-0.5,0.3-0.8c0.1-0.3,0.3-0.7,0.5-1.1c0.4-1.6,2.3-5.4,2.1-5.6c-0.1,0.2,0.3-0.3,0.7-1c0.2-0.4,0.4-0.8,0.6-1.2
			c0.2-0.4,0.4-0.8,0.5-1.1c0.3-0.7,0.9-2,1.5-3c0.6-1,1-1.7,0.5-1.1c-0.3,0.5-0.7,1.1-1,1.7c-0.3,0.6-0.7,1.2-1,1.5
			c0,0,0.3-0.5,0.6-1c0.1-0.3,0.3-0.5,0.4-0.7c0.1-0.2,0.2-0.3,0.2-0.3s-0.1,0.1-0.1,0.2c-0.1,0.1-0.2,0.3-0.3,0.4
			c-0.2,0.3-0.4,0.6-0.4,0.6C462.3,45.8,462.2,45.8,461.8,46.1z M451.6,97.7C451.6,97.7,451.6,97.7,451.6,97.7
			C451.6,97.7,451.6,97.7,451.6,97.7L451.6,97.7z"/>
		<path class="st0" d="M592,53.9c0.1,0.1,0.2,0.4,0.3,0.6c0.1,0.2,0.2,0.5,0.3,0.7c0.2,0.4,0.3,0.7,0.4,0.6c-0.1,0-0.3-0.7-0.6-1.2
			C592.1,53.9,591.9,53.4,592,53.9z"/>
		<path class="st0" d="M592.6,55.9c0.1,0.1,0.1,0,0.4,0.7l-0.8-1.9L592.6,55.9z"/>
		<path class="st0" d="M592.4,58.2c0.5,1,0.7,1.6,1.3,3.2c-0.2,0.7-1-2.6-1.6-3.1c0.5,1.4,0.9,2.4,1.2,3.2c0.4,0.9,0.7,1.7,1,2.9
			c0-0.3-0.2-0.8-0.3-1.5c-0.2-0.6-0.3-1.4-0.6-2.1C593,59.4,592.6,58.2,592.4,58.2z"/>
		<path class="st0" d="M591.5,57.1c0,0,0.2,0.4,0.3,0.8c0.1,0.2,0.2,0.4,0.2,0.5c0.1,0.1,0.1,0.2,0.1,0.2l0-0.2c0,0,0-0.1-0.1-0.2
			c-0.1-0.1-0.2-0.3-0.2-0.5c-0.2-0.4-0.3-0.8-0.3-0.8L591.5,57.1z"/>
		<path class="st0" d="M572.4,25.3c0-0.2-1-0.8-1.5-1.1C571.3,24.5,571.9,24.9,572.4,25.3z"/>
		<path class="st0" d="M578.5,135.2c0,0,0.6-0.6,1.4-1.5c0.4-0.5,0.9-1,1.4-1.6c0.3-0.3,0.5-0.6,0.8-0.9c0.3-0.3,0.5-0.6,0.8-1
			c0.5-0.7,1-1.3,1.5-2c0.1-0.2,0.2-0.3,0.4-0.5c0.1-0.2,0.2-0.3,0.3-0.5c0.2-0.3,0.4-0.6,0.6-0.8c0.4-0.5,0.7-0.9,0.9-1.2
			c0.2-0.3,0.3-0.5,0.3-0.5c-1.1,1.6-2.1,3.1-3.5,4.8c-0.3,0.4-0.7,0.9-1,1.3c-0.4,0.4-0.8,0.9-1.2,1.4c-0.4,0.5-0.8,1-1.3,1.5
			C579.5,134.2,579,134.7,578.5,135.2z"/>
		<path class="st0" d="M531.7,9.3c0.2,0,0.4,0,0.6,0c0.2,0,0.4,0,0.6,0.1c0.4,0,0.8,0.1,1.1,0.1c0.7,0.1,1.4,0.1,2,0.1
			c0.6,0.1,1.3,0.2,2,0.3c0.4,0.1,0.7,0.1,1.1,0.2c0.2,0,0.4,0.1,0.6,0.1c0.2,0,0.4,0.1,0.6,0.1c-0.6-0.2-1.1-0.3-1.6-0.4
			c-0.5-0.1-1-0.2-1.4-0.2c-0.4-0.1-0.8-0.1-1.2-0.2c-0.4,0-0.8-0.1-1.1-0.1c-0.7,0-1.5-0.1-2.2-0.2c-0.8-0.1-1.6-0.1-2.6-0.3
			L531.7,9.3z"/>
		<path class="st0" d="M533.1,8.5c0.1,0.1,0,0.1-0.2,0.1c-0.2,0-0.6,0-0.9,0c-0.7,0-1.4,0-1.2,0.1c2.4,0.1,1.1-0.1,3.3,0.1
			L533.1,8.5z"/>
		<polygon class="st0" points="547.9,15.5 546.8,15.3 547.6,15.5 		"/>
		<polygon class="st0" points="516.6,8.7 517,8.6 515.2,8.7 		"/>
		<path class="st0" d="M517.4,8.5c0,0-0.1,0-0.2,0c-0.1,0-0.2,0-0.2,0s0.1,0,0.2,0C517.3,8.5,517.4,8.5,517.4,8.5z"/>
		<polygon class="st0" points="546.4,15.6 547.9,16.1 548.6,16.2 		"/>
		<path class="st0" d="M533.3,11.5l1.4,0.1C534.4,11.6,532.5,11.3,533.3,11.5z"/>
		<polygon class="st0" points="505.7,10.6 504.1,11.1 504.2,11.1 505.9,10.5 		"/>
		<path class="st0" d="M522.4,11.7c0.5,0.1-0.2,0.1-0.8,0.1c-0.3,0-0.5,0-0.6,0c-0.1,0,0.1,0,0.6,0.1
			C523.4,11.8,522.6,11.7,522.4,11.7z"/>
		<path class="st0" d="M502,14.1c-0.2,0.1-0.4,0.2-0.7,0.3C501.6,14.3,501.8,14.2,502,14.1z"/>
		<path class="st0" d="M502,14.1c0.4-0.1,0.7-0.2,1-0.3c0.3-0.1,0.6-0.2,0.9-0.3C503,13.7,502.7,13.9,502,14.1z"/>
		<path class="st0" d="M494.1,17.3l0.6-0.3c-0.6,0.4-0.3,0.2,0.2-0.1c0.7-0.3,0.6-0.3,0.7-0.4c0.1-0.1,0.2-0.2,0.4-0.2
			c-0.2,0.1-0.4,0.2-0.5,0.3C494.4,17.1,493.8,17.3,494.1,17.3z"/>
		<path class="st0" d="M466.8,34.7c1.8-1.9,2.2-2.4,2.2-2.2c1.7-1.8,1.3-1.6,2.3-2.8c-1,1-1.5,1.6-2.2,2.3
			C468.6,32.7,467.9,33.5,466.8,34.7z"/>
		<path class="st0" d="M471.4,29.8c0.2-0.2,0.4-0.4,0.7-0.7C471.8,29.4,471.5,29.6,471.4,29.8z"/>
		<path class="st0" d="M503.8,15.1c0,0-0.1,0-0.2,0.1c-0.1,0.1-0.3,0.1-0.5,0.2c-0.3,0.2-0.7,0.3-0.7,0.3l0.5-0.2
			c0,0,0.2-0.1,0.4-0.2c0.1-0.1,0.2-0.1,0.3-0.2C503.8,15.1,503.8,15.1,503.8,15.1z"/>
		<path class="st0" d="M464.4,37.7c0.3-0.4,0.8-1,1-1.3C465.4,36.3,464.1,38.1,464.4,37.7z"/>
		<path class="st0" d="M472.8,32c0.2-0.1,1.3-1.3,1.8-1.7C474,30.9,473.2,31.2,472.8,32z"/>
		<path class="st0" d="M460.7,44.2c0.3-0.4,0.7-1,0.7-0.6C461.7,42.9,462,42,460.7,44.2z"/>
		<path class="st0" d="M469.7,35.3l0.3-0.2c0,0,0.3-0.3,0.5-0.7c0.1-0.2,0.3-0.3,0.4-0.5c0.1-0.1,0.2-0.2,0.2-0.2s-0.1,0.1-0.2,0.2
			c-0.1,0.2-0.3,0.4-0.5,0.6C470,34.9,469.7,35.3,469.7,35.3z"/>
		<path class="st0" d="M475.3,32.3c1.3-1.4-2.4,1.8-0.2-0.6c-0.4,0.4-0.7,0.6-0.9,0.8c-0.2,0.2-0.3,0.3-0.4,0.4
			c-0.1,0.2-0.1,0.1,0,0.1c0.2-0.1,0.5-0.3-0.6,0.8C474.6,32.5,475.4,32.1,475.3,32.3z"/>
		<path class="st0" d="M473.3,33.8c-0.2,0.2-0.4,0.4-0.6,0.6C472.9,34.2,473.1,34,473.3,33.8z"/>
		<path class="st0" d="M457.9,55.7c0.1-0.3,0.1-0.5,0.2-0.6C458,55.3,458,55.5,457.9,55.7z"/>
		<path class="st0" d="M467.1,41.5c0,0,0.4-0.6,0.7-1.2c0.4-0.6,0.8-1.2,0.8-1.2c-1.1,1.5-3.8,5.5-3.4,5.4c0.2-0.3,0.4-0.7,0.7-1
			c0.2-0.3,0.5-0.7,0.7-1c0.4-0.6,0.8-1.2,0.9-1.5L467.1,41.5z"/>
		<path class="st0" d="M450.4,70.6l0.1-1.3l-0.3,1.6C450.4,70.4,450.4,71.3,450.4,70.6z"/>
		<path class="st0" d="M450.2,71.2l0.1-0.3C450.2,70.9,450.2,71,450.2,71.2z"/>
		<path class="st0" d="M460.1,50.7c0.4-0.8,0.8-1.5,1.1-2.3C461,48.7,459.9,50.7,460.1,50.7z"/>
		<path class="st0" d="M449.8,79.7c0,0,0-0.5,0-1.1c0-0.5,0.1-1.1,0.1-1.1s0,0.6-0.1,1.2c0,0.3,0,0.6,0,0.8c0,0.2,0,0.4,0,0.4
			L449.8,79.7z"/>
		<path class="st0" d="M449.6,89.6l0,0.4c0,0,0,0.1,0,0.3c0,0.2,0,0.4,0.1,0.6c0.1,0.4,0.2,0.9,0.2,0.9l0-0.4c0,0,0-0.1,0-0.3
			c0-0.2-0.1-0.4-0.1-0.6C449.7,90.1,449.6,89.6,449.6,89.6z"/>
		<path class="st0" d="M454.3,77c0.1-1.4,0.1-2.4,0-2.1c0,0,0,0.2-0.1,0.4c0,0.1,0,0.3-0.1,0.4c0,0.2,0,0.3,0,0.5
			c0,0.7-0.1,1.3-0.1,1.3c0.1-0.3,0.1-0.5,0.1-0.8c0-0.1,0-0.3,0-0.6c0-0.2,0-0.5,0.1-0.9c0,0,0,0.1,0,0.3c0,0.2,0,0.4,0,0.6
			C454.3,76.5,454.3,77,454.3,77z"/>
		<path class="st0" d="M488.9,149c-0.6-0.2-3.2-1.8-3.3-2c0.4,0.2,1.8,1,1,0.4c0,0-0.1-0.1-0.4-0.1c-0.2-0.1-0.5-0.2-0.8-0.3
			c-0.6-0.3-1.1-0.5-1.1-0.5c-2.6-1.9,2.3,1,3.7,1.6c-0.7-0.4-1.3-0.7-1.8-1c-0.5-0.3-1-0.6-1.5-0.9c-0.5-0.3-0.9-0.6-1.5-0.9
			c-0.5-0.3-1.1-0.7-1.8-1.2c0.8,0.6,1.3,1.1,1.7,1.4c0,0.1-0.2,0-0.5-0.2c-0.3-0.2-0.7-0.4-1.1-0.7c-0.4-0.3-1-0.7-1.5-1
			c-0.5-0.4-1-0.8-1.5-1.1c1.1,1,0.4,0.5-0.5-0.1c-0.2-0.1-0.3-0.2-0.3-0.2c-0.1-0.1-0.2-0.1-0.3-0.2l0.2,0.2c0,0,0,0.1,0.1,0.2
			c0.8,0.6,1.4,1.2,2.1,1.6c0.6,0.5,1.2,0.9,1.7,1.3c-0.2-0.3-0.1-0.2,0.2,0c0.3,0.2,0.8,0.6,1.4,0.9c1.2,0.8,2.7,1.8,3.4,2.1
			l1.6,0.9l0.6,0.3c0.1,0.1-0.1,0.1-1-0.4c0.2,0.1,0.5,0.3,0.8,0.4c0.3,0.2,0.7,0.4,1.1,0.5c0.7,0.4,1.3,0.6,1.2,0.5
			c0,0,0.4,0.2,0.9,0.5c0.6,0.3,1.3,0.6,2.1,0.9c0.8,0.3,1.5,0.7,2.1,0.9c0.6,0.2,1,0.4,1,0.4c0.2,0.1,0.4,0.2,0.5,0.3
			c0.2,0.1,0.3,0.1,0.2,0c0,0,0.4,0.2,1.2,0.4c0.8,0.3,1.8,0.6,3.1,1.1c0.6,0.2,1.4,0.4,2.1,0.6c0.4,0.1,0.8,0.2,1.2,0.3
			c0.2,0.1,0.4,0.1,0.6,0.2c0.2,0,0.4,0.1,0.6,0.1c0.8,0.2,1.7,0.4,2.6,0.6c0.4,0.1,0.9,0.2,1.3,0.3c0.4,0.1,0.9,0.2,1.3,0.2
			c0.4,0.1,0.9,0.2,1.3,0.2c0.4,0.1,0.9,0.1,1.3,0.2c0.9,0.1,1.8,0.2,2.6,0.3c0.8,0.1,1.7,0.1,2.4,0.2c0.8,0.1,1.5,0.1,2.2,0.1
			c1.4,0,2.5,0.1,3.3,0.1c0.8,0,1.2,0,1.2,0c-1.4,0-2.7-0.1-4.1-0.2c1.1-0.1,0.5-0.1-0.3-0.1c-0.8,0-1.8-0.1-1.5-0.2
			c0.5,0,1.1,0,1.7,0c0.6,0,1.2,0.1,1.6,0.1c0.3-0.1-0.9-0.2-0.8-0.4c-0.9-0.1-1.6-0.1-2.2-0.1c-0.6,0-1.1,0-1.7,0c-0.5,0-1,0-1.6,0
			c-0.6,0-1.3-0.1-2.2-0.2c0.2-0.1,1.3-0.1-1-0.4l0.6,0c-0.5,0-0.9-0.1-1.2-0.1c-0.3,0-0.6-0.1-0.8-0.2c-0.5-0.1-0.8-0.2-1-0.3
			c-0.5-0.1-0.9-0.2-2.1-0.3l0.1-0.2c-0.8-0.1-2-0.4-3.3-0.6c-1.2-0.3-2.5-0.7-3.3-0.9l0.1,0c-5-1.4-2.8-0.8-8.2-2.9
			c0,0,0.2,0.1,0.4,0.1c0.2,0.1,0.6,0.2,0.9,0.3c0.6,0.2,1.3,0.4,1.3,0.4c-1.8-0.8-2.3-0.8-3.6-1.4c0.1,0-0.1-0.3,1.1,0.3
			c0,0-0.4-0.2-1-0.4c-0.6-0.2-1.4-0.5-2.2-0.9c-0.8-0.4-1.6-0.7-2.2-1c-0.3-0.1-0.5-0.3-0.7-0.3c-0.2-0.1-0.3-0.1-0.3-0.1
			C486.9,147.8,488.7,148.8,488.9,149z"/>
		<path class="st0" d="M481.4,144c-0.3-0.2-0.6-0.5-1.1-0.8C480.8,143.5,481.1,143.8,481.4,144z"/>
		<path class="st0" d="M528.2,158.3l-2,0.1C526.8,158.4,527.5,158.4,528.2,158.3z"/>
		<path class="st0" d="M473.3,137.9c0.8,0.9-0.8-0.5-1-0.6c0,0,0.8,0.8,1.6,1.5c0.8,0.7,1.7,1.5,1.7,1.5c0-0.1,0.4,0.2,0.4,0
			c0,0-0.7-0.6-1.4-1.2c-0.3-0.3-0.7-0.6-0.9-0.8C473.5,138,473.3,137.9,473.3,137.9z"/>
		<path class="st0" d="M476.5,141.2c0.1,0.1,0.5,0.3,1,0.6c0,0-0.1-0.1-0.3-0.2c-0.2-0.1-0.4-0.3-0.6-0.5c-0.5-0.4-0.9-0.8-0.9-0.8
			C475.6,140.3,475.8,140.5,476.5,141.2z"/>
		<path class="st0" d="M478.7,137.8c0,0,0.1,0.1,0.3,0.2c0.1,0.1,0.3,0.2,0.3,0.2l0.9,0.6c0,0-0.4-0.3-0.8-0.6
			c-0.2-0.1-0.4-0.3-0.5-0.4C478.8,137.9,478.7,137.8,478.7,137.8z"/>
		<path class="st0" d="M488,144.9c-0.4-0.3-0.9-0.6-1.4-0.9c-0.5-0.3-1-0.6-1.3-0.7c0.8,0.5,1,0.7,1.3,0.8c0.1,0.1,0.2,0.2,0.4,0.3
			C487.3,144.4,487.6,144.6,488,144.9z"/>
		<polygon class="st0" points="486.6,142.6 488.2,143.5 488.1,143.4 		"/>
		<path class="st0" d="M542.9,155.5c0.3-0.1,0.6-0.1,0.9-0.2C543.4,155.3,543.1,155.4,542.9,155.5z"/>
		<path class="st0" d="M526.4,157.8c4.7,0.1-3.1,0.3-1.6,0.5l2.5-0.2l-0.2,0.1c0,0,0.8,0,1.6-0.1c0.8-0.1,1.6-0.1,1.6-0.1
			c-0.6-0.1-1.1-0.1-1-0.2c2.1-0.1,2.4-0.1,2.6-0.1c0.2,0,0.3,0.1,1.8,0c0,0,1.2-0.2,2.3-0.3c0.6-0.1,1.1-0.2,1.6-0.3
			c0.4-0.1,0.7-0.1,0.7-0.1l-0.4,0.1c0.4-0.1,0.6-0.1,0.7-0.2c0,0,0.2,0,0.7-0.1c0.2,0,0.5-0.1,0.8-0.1c0.3-0.1,0.6-0.1,1-0.2
			c0.7-0.2,1.5-0.4,2.4-0.6c0.9-0.2,1.8-0.5,2.8-0.8c0.5-0.1,0.9-0.3,1.4-0.4c0.5-0.2,0.9-0.3,1.3-0.5c0.4-0.1,0.9-0.3,1.2-0.4
			c0.2-0.1,0.4-0.1,0.6-0.2c0.2-0.1,0.4-0.1,0.5-0.2c1.4-0.5,2.3-0.9,2.3-0.9c0.7-0.3,0.9-0.4,0.9-0.5c0,0-0.2,0-0.4,0.1
			c-0.5,0.1-1,0.2-0.1-0.2c-3,1.3-7.7,2.6-7.9,2.9c0.1-0.1,0.3-0.2-0.4,0l-1.8,0.7l1.8-0.4c-0.4,0.2-1.2,0.4-2,0.7
			c-0.8,0.2-1.8,0.5-2.7,0.7c-0.9,0.2-1.9,0.4-2.6,0.5c-0.8,0.1-1.4,0.2-1.6,0.2c1.7-0.3,2.1-0.5,2.7-0.7c0.6-0.1,1.3-0.4,3.7-0.8
			c-0.2,0-1.1,0.1-0.1-0.2c-0.7,0.2-1.4,0.3-2.1,0.5c-0.3,0.1-0.7,0.2-1,0.2c-0.3,0.1-0.7,0.1-1,0.2c-1.4,0.2-2.7,0.5-4,0.7
			c-0.7,0.1-1.4,0.2-2,0.3c-0.7,0.1-1.4,0.1-2.1,0.2c-0.7,0.1-1.4,0.1-2.1,0.2C527.8,157.7,527.1,157.8,526.4,157.8z"/>
		<path class="st0" d="M577.8,135.7L577.8,135.7C577.8,135.7,577.8,135.7,577.8,135.7z"/>
		<path class="st0" d="M576.4,137c0,0-0.5,0.5-0.9,1.1c-0.2,0.3-0.5,0.5-0.7,0.7c-0.2,0.2-0.3,0.3-0.3,0.3s0.8-0.7,1.6-1.5
			c0.8-0.8,1.6-1.5,1.6-1.5s0-0.1,0-0.2c0-0.1,0-0.2,0-0.2c-0.2,0.3-1.3,1.4-1.8,1.8L576.4,137z"/>
		<path class="st0" d="M572.1,141.3c0.4-0.4,0.7-0.7,0.9-0.9c0.2-0.2,0.3-0.3,0.3-0.4c0-0.1-0.3,0-0.8,0.4c1.5-1.4,1-0.5,1.9-1.6
			c-0.1-0.1-2,1.7-2.4,2L572.1,141.3z"/>
		<path class="st0" d="M558.1,150.2l0.5-0.4l-1.4,0.7c0,0,0.2-0.1,0.4-0.2C557.9,150.3,558.1,150.2,558.1,150.2z"/>
		<path class="st0" d="M558.6,149.8l1.4-0.7c-0.1,0-0.3,0-0.5,0.1L558.6,149.8z"/>
		<path class="st0" d="M563.6,147.2c0.6-0.3,1.2-0.7,1.9-1.2c0,0-0.5,0.3-1,0.6c-0.2,0.1-0.5,0.3-0.7,0.4
			C563.7,147.2,563.6,147.2,563.6,147.2z"/>
		<path class="st0" d="M562,148.1L562,148.1l1.6-0.8C563,147.5,562.5,147.8,562,148.1z"/>
		<path class="st0" d="M560,149.2c0.1,0,0.3,0,0.7-0.1c0.4-0.1,0.9-0.4,1.9-1l-0.5,0c0,0-0.5,0.3-1,0.6
			C560.5,148.9,560,149.2,560,149.2z"/>
		<polygon class="st0" points="498.5,148.9 500,149.5 499.9,149.4 498.3,148.8 		"/>
		<path class="st0" d="M507.6,152c0.4,0.1,0.7,0.1,1,0.1C508.2,152.1,507.8,152,507.6,152z"/>
		<path class="st0" d="M514.8,152.4c1.9,0.4-2.7-0.1,0.9,0.4c0.1,0.1-0.2,0.1-0.8,0.1c-0.3,0-0.7,0-1.1-0.1
			c-0.4-0.1-0.8-0.1-1.2-0.2c0.2-0.1,1.7,0.2,0.6-0.1c-1.1,0-1.5-0.2-1.2,0c-1.9-0.2-2.1-0.2-3.4-0.3c0.6,0.1,1.3,0.3,2.1,0.5
			c0.8,0.2,1.7,0.3,2.6,0.5c0.2,0,0.5,0.1,0.7,0.1l0.7,0.1c0.5,0.1,0.9,0.1,1.4,0.2c0.5,0,0.9,0.1,1.3,0.1c0.4,0,0.8,0,1.2,0
			c1.6-0.1,0.7-0.5,0.7-0.9c-0.1,0-0.4-0.1-0.8-0.1c-0.4,0-1-0.1-1.5-0.2C516,152.4,514.9,152.3,514.8,152.4z"/>
		<path class="st0" d="M511.9,151.5c-0.9-0.2-1.2-0.2-1.7-0.3c0.1,0.1,0.3,0.1,0.6,0.2C511.1,151.4,511.5,151.5,511.9,151.5z"/>
		<path class="st0" d="M532.6,155c0.2-0.1,1.8-0.3,1.5-0.4c0,0-0.6,0.1-1.3,0.2c-0.6,0.1-1.3,0.2-1.3,0.2
			C532.2,154.9,532.4,154.9,532.6,155z"/>
		<path class="st0" d="M530.5,155l1.1-0.1C531.3,154.9,531,155,530.5,155z"/>
		<path class="st0" d="M532.8,155c0,0-0.1,0-0.1,0C532.6,155,532.6,155,532.8,155z"/>
		<path class="st0" d="M569,143.7c0,0.1,1-0.6,1.4-1c-0.2,0.1-0.4,0.3-0.7,0.5C569.4,143.4,569.2,143.6,569,143.7z"/>
		<path class="st0" d="M595,108.7l0.4-1C595.2,108.1,595.1,108.3,595,108.7z"/>
		<path class="st0" d="M596.2,92.9c0,0,0-0.1,0-0.2C596.2,92.8,596.2,92.9,596.2,92.9z"/>
		<path class="st0" d="M596.2,92.7c0-0.3,0.1-1,0.2-1.7c0.1-0.7,0.1-1.4,0.1-1.8l0,0.1l0-1.4c0,0.7-0.1,1.7-0.2,2.6
			C596.3,91.4,596.2,92.3,596.2,92.7z"/>
	</g>
	<path class="st0" d="M624.3,66c-0.3,2.6-1,4.6-2.5,6.7c-10.2,13.7-24.9,10-41,8.6c-13.9-1.2-20.6-2.5-31.2,0.5
		c0.1-0.7,0.2-1.4,0.2-2c0-0.1,0-0.1,0-0.2c0-0.4,0-0.7-0.1-1c0-0.2-0.1-0.3-0.1-0.5c0,0,0,0,0,0c0-0.1-0.1-0.3-0.1-0.4c0,0,0,0,0,0
		c0-0.1-0.1-0.3-0.1-0.4c0,0,0,0,0,0c-0.1-0.1-0.1-0.2-0.2-0.4c0,0,0,0,0,0c-0.1-0.1-0.1-0.2-0.2-0.3c0,0,0,0,0,0
		c-0.1-0.1-0.1-0.2-0.2-0.3c0,0,0,0,0,0c-1.7-2.2-5.4-1.7-8.1,0.7c-0.5,0.4-0.9,0.8-1.3,1.3c0,0,0,0,0,0c-0.2,0.2-0.3,0.3-0.4,0.5
		c0,0-0.1,0.1-0.1,0.1c-0.1,0.2-0.3,0.3-0.4,0.5c0,0-0.1,0.1-0.1,0.1c-0.4,0.5-0.8,1-1.1,1.5c-0.1,0.1-0.1,0.2-0.2,0.3
		c-0.1,0.1-0.2,0.2-0.2,0.4c-0.1,0.1-0.2,0.3-0.3,0.4c-0.1,0.1-0.1,0.2-0.2,0.3c-0.2,0.3-0.3,0.5-0.5,0.8l1.2-4
		c1.2-4.1-3.2-3.8-3.2-3.6l-0.6,2.1c0,0,0,0.1,0,0.1c-1.5,1.7-2.6,3.5-4,4.5c-0.6,0.4-1.1,0.6-1.5,0.3c-0.3-0.3-0.5-0.8-0.5-1.6
		c0,0,0,0,0,0c0-0.1,0-0.2,0-0.4c0-0.1,0-0.1,0-0.2c0-0.2,0-0.3,0-0.5c0.7-6.1,5-14.1,5.4-20c0.2-6.5-4.6-8.8-8.1-2.1
		c-2,4.2-4.2,9.2-5.9,13.4c0.4-1.4,2.2-8.6,2.4-11c0.4-4.3-3.4-2.6-3.4-2.6c-7.7,10.4-20.8,8.1-39.5,5.9c-18.1-2.2-25.4-4.4-34.4,5
		c-2.4,2.4-4.4,5.9-4.8,9.5c0,0.5,0.8,0.6,0.9,0.1c0.3-2.3,1-4.1,2.4-6c9.5-12.1,19.3-8.2,33.8-6.6c18.8,2.2,32.5,4.4,41.3-6.4
		c-0.4,2.2-1,5-1.6,7.4c-0.3,1.6-0.6,3-0.7,4c-0.1,2.2,0.5,4.7,3.2,3.3c2.1-4.8,4.6-11.3,7-15.9c2.5-5,4.5-3,3.6,1.7
		c-1.5,7.5-4.4,13.7-4.1,20.1c0,0.3,0,0.5,0.1,0.7c0,0,0,0.1,0,0.1c0.2,1.6,0.8,2.6,1.6,3.1c0.9,0.6,2.1,0.4,3.2-0.4
		c1.1-0.9,2-2.1,3-3.3c-0.2,0.9-0.5,1.8-0.7,2.6c-1.5,5.7-2.8,11-4.3,17.2c-2,8.3-4.4,16.1-8.5,20.8c-0.8,0.8-1.5,1.5-2.3,2
		c-3.6,2.1-6.8-1.4-7.6-4.7c-0.1-0.6-1.1-0.4-1,0.2c1,4.2,4.9,7.6,9.5,6.5c1.7-0.4,3.5-1.4,5.1-3.2c6.4-7,9.2-22.7,12.2-34.8
		c0.2-0.3,0.3-0.6,0.5-0.9c0.1-0.2,0.2-0.4,0.4-0.7c0-0.1,0.1-0.1,0.1-0.2c0.1-0.3,0.3-0.5,0.4-0.8c0,0,0-0.1,0.1-0.1
		c0.1-0.2,0.2-0.4,0.4-0.6c0-0.1,0.1-0.1,0.1-0.2c0.1-0.2,0.3-0.4,0.4-0.6c0,0,0-0.1,0-0.1c0.1-0.2,0.3-0.5,0.4-0.7
		c0,0,0.1-0.1,0.1-0.1c0.1-0.2,0.3-0.4,0.4-0.6c0-0.1,0.1-0.1,0.1-0.2c0.2-0.2,0.3-0.5,0.5-0.7c0.7-0.9,1.4-1.7,2.3-2.5
		c1.4-1.2,3.7-2.6,4.3,0.3c0.3,1.6,0,3.5-0.5,5.3c-2.9,1.2-5.4,3-7.4,5.3c-0.4,0.5-0.8,1-1,1.4c0,0,0,0,0,0c-2.7,2.4-0.8,5.3,2.7,5
		c0.6,0,1.1-0.1,1.7-0.3c0,0,0,0,0,0c0.5-0.2,1.1-0.4,1.7-0.7c3.4-2.1,5.6-6.8,6.6-10.5c9.9-2.5,15.7-1.1,29.3,0.1
		c20.2,1.9,32.1,3.8,41.7-7c2.5-2.7,4.7-6.7,5-10.7C625.2,65.5,624.3,65.4,624.3,66z M542.6,91.5c0,0,0-0.1,0-0.1
		c-0.4,0.5-0.8,0.9-1.2,1.2c-2,1.4-3-0.1-1.9-2.3c0.6-0.4,1.4-0.7,2.4-0.9c-0.3-0.2-0.5-0.5-0.7-0.8c-0.2,0.1-0.4,0.1-0.5,0.2
		c1.6-1.5,3.4-2.7,5.5-3.6C545.4,87.1,544.3,89.7,542.6,91.5z"/>
	<g>
		<g>
			<path class="st0" d="M493.4,40.5l-7.1-3.7l2.6,5.8l-0.5,0.2l-2.9-6.5l0.5-0.2l7,3.6l-2.5-5.6l0.5-0.2l2.9,6.5L493.4,40.5z"/>
			<path class="st0" d="M495.7,39.6l-2.5-6.6l0.5-0.2l2.5,6.6L495.7,39.6z"/>
			<path class="st0" d="M503.2,36.4c-0.1,0.2-0.3,0.4-0.5,0.6c-0.2,0.2-0.4,0.3-0.6,0.5c-0.2,0.1-0.5,0.3-0.8,0.4
				c-0.5,0.2-1,0.2-1.4,0.2c-0.5,0-0.9-0.2-1.3-0.4c-0.4-0.2-0.8-0.5-1.1-0.9c-0.3-0.4-0.5-0.8-0.7-1.3l0,0c-0.2-0.5-0.2-1-0.2-1.4
				c0-0.5,0.1-0.9,0.3-1.3c0.2-0.4,0.5-0.8,0.8-1.1c0.4-0.3,0.8-0.6,1.3-0.7c0.3-0.1,0.6-0.2,0.8-0.2c0.3,0,0.5,0,0.8,0
				s0.5,0.1,0.7,0.2c0.2,0.1,0.5,0.2,0.7,0.3l-0.2,0.5c-0.2-0.1-0.4-0.2-0.6-0.2c-0.2-0.1-0.4-0.1-0.6-0.1c-0.2,0-0.4,0-0.7,0
				c-0.2,0-0.5,0.1-0.7,0.1c-0.4,0.1-0.8,0.3-1.1,0.6c-0.3,0.3-0.5,0.6-0.7,0.9c-0.2,0.4-0.3,0.7-0.3,1.2c0,0.4,0,0.8,0.2,1.3l0,0
				c0.1,0.4,0.3,0.8,0.6,1.1c0.3,0.3,0.6,0.6,0.9,0.8c0.3,0.2,0.7,0.3,1.1,0.4c0.4,0,0.8,0,1.2-0.1c0.5-0.2,0.9-0.4,1.2-0.7
				c0.3-0.3,0.6-0.7,0.8-1.1l0.4,0.2C503.4,36,503.3,36.2,503.2,36.4z"/>
			<path class="st0" d="M510.9,32.9c-0.1,0.5-0.2,0.9-0.4,1.3c-0.2,0.4-0.5,0.7-0.9,1s-0.8,0.5-1.4,0.6c-0.5,0.1-1,0.1-1.5,0
				c-0.5-0.1-0.9-0.3-1.3-0.5c-0.4-0.3-0.7-0.6-1-1c-0.3-0.4-0.5-0.8-0.6-1.3l0,0c-0.1-0.5-0.1-0.9-0.1-1.4c0.1-0.5,0.2-0.9,0.4-1.3
				c0.2-0.4,0.5-0.7,0.9-1c0.4-0.3,0.8-0.5,1.4-0.6c0.5-0.1,1-0.1,1.5,0c0.5,0.1,0.9,0.3,1.3,0.5c0.4,0.3,0.7,0.6,1,1
				c0.3,0.4,0.5,0.8,0.6,1.3c0,0,0,0,0,0C510.9,32,511,32.5,510.9,32.9z M510.3,31.6c-0.1-0.4-0.3-0.8-0.5-1.2
				c-0.2-0.3-0.5-0.6-0.8-0.8c-0.3-0.2-0.7-0.4-1.1-0.5c-0.4-0.1-0.8-0.1-1.2,0c-0.4,0.1-0.8,0.3-1.1,0.5c-0.3,0.2-0.6,0.5-0.8,0.9
				c-0.2,0.3-0.3,0.7-0.4,1.1c-0.1,0.4,0,0.8,0.1,1.3l0,0c0.1,0.4,0.3,0.8,0.5,1.2c0.2,0.3,0.5,0.6,0.8,0.8c0.3,0.2,0.7,0.4,1.1,0.5
				c0.4,0.1,0.8,0.1,1.2,0c0.4-0.1,0.8-0.3,1.1-0.5c0.3-0.2,0.6-0.5,0.8-0.9c0.2-0.3,0.3-0.7,0.4-1.1
				C510.4,32.5,510.4,32.1,510.3,31.6L510.3,31.6z"/>
			<path class="st0" d="M513.3,34.7l-1-7l0.5-0.1l0.9,6.6l4.1-0.6l0.1,0.5L513.3,34.7z"/>
			<path class="st0" d="M519.4,33.9l-0.4-7.1l5-0.3l0,0.5l-4.5,0.3l0.2,2.8l4.1-0.2l0,0.5l-4.1,0.2l0.2,2.9l4.6-0.3l0,0.5
				L519.4,33.9z"/>
			<path class="st0" d="M537.3,30.5c-0.2,0.3-0.4,0.5-0.7,0.6s-0.6,0.3-0.9,0.3c-0.3,0.1-0.7,0.1-1.1,0l-1.9-0.2l-0.3,2.6l-0.5-0.1
				l0.8-7.1l2.6,0.3c0.4,0,0.7,0.1,1,0.3c0.3,0.1,0.6,0.3,0.8,0.5c0.2,0.2,0.4,0.5,0.5,0.7c0.1,0.3,0.1,0.6,0.1,0.9l0,0
				C537.6,30,537.5,30.3,537.3,30.5z M537.1,29.5c0-0.3,0-0.5-0.1-0.8c-0.1-0.2-0.2-0.4-0.4-0.6c-0.2-0.2-0.4-0.3-0.6-0.4
				c-0.3-0.1-0.5-0.2-0.9-0.2l-2-0.2l-0.4,3.5l1.9,0.2c0.3,0,0.6,0,0.9,0c0.3-0.1,0.5-0.1,0.7-0.3c0.2-0.1,0.4-0.3,0.5-0.5
				C537,30,537.1,29.8,537.1,29.5L537.1,29.5z"/>
			<path class="st0" d="M543.6,35.8l-0.5-2.1l-4.1-0.8l-1.3,1.8l-0.5-0.1l4.7-6.3l0.5,0.1l1.8,7.7L543.6,35.8z M542,28.7l-2.7,3.6
				l3.7,0.8L542,28.7z"/>
			<path class="st0" d="M548.9,30.4l-1.9,6.4l-0.5-0.1l1.9-6.4l-2.4-0.7l0.1-0.5l5.3,1.6l-0.1,0.5L548.9,30.4z"/>
			<path class="st0" d="M555.5,32.7l-2.4,6.2l-0.5-0.2l2.4-6.2l-2.3-0.9l0.2-0.4l5.1,2l-0.2,0.4L555.5,32.7z"/>
			<path class="st0" d="M556.8,40.4l3-6.5l0.5,0.2l-3,6.5L556.8,40.4z"/>
		</g>
	</g>
	<g>
		<g>
			<path class="st0" d="M488,129.7l-1.1,2.7l3.7,1.6l-0.2,0.4l-3.7-1.6l-1.3,3l-0.5-0.2l2.8-6.5l4.6,1.9l-0.2,0.4L488,129.7z"/>
			<path class="st0" d="M500.2,138.8c-0.3,0.4-0.6,0.7-1,0.9c-0.4,0.2-0.8,0.4-1.3,0.4c-0.5,0.1-1,0-1.5-0.2c-0.5-0.2-1-0.4-1.3-0.7
				c-0.4-0.3-0.6-0.7-0.8-1.1c-0.2-0.4-0.3-0.9-0.3-1.3c0-0.5,0-0.9,0.2-1.4l0,0c0.1-0.5,0.4-0.9,0.7-1.3c0.3-0.4,0.6-0.7,1-0.9
				c0.4-0.2,0.8-0.4,1.3-0.4c0.5-0.1,1,0,1.5,0.2c0.5,0.2,0.9,0.4,1.3,0.7c0.4,0.3,0.6,0.7,0.8,1.1c0.2,0.4,0.3,0.9,0.3,1.3
				c0,0.5,0,0.9-0.2,1.4c0,0,0,0,0,0C500.7,138,500.5,138.5,500.2,138.8z M500.3,137.4c0.1-0.4,0.2-0.8,0.2-1.3
				c0-0.4-0.1-0.8-0.3-1.2c-0.2-0.4-0.4-0.7-0.7-0.9c-0.3-0.3-0.7-0.5-1.1-0.6c-0.4-0.1-0.8-0.2-1.2-0.1c-0.4,0-0.8,0.2-1.1,0.4
				c-0.3,0.2-0.6,0.5-0.9,0.8c-0.3,0.3-0.5,0.7-0.6,1.1l0,0c-0.1,0.4-0.2,0.8-0.2,1.3c0,0.4,0.1,0.8,0.3,1.2
				c0.2,0.4,0.4,0.7,0.7,0.9c0.3,0.3,0.7,0.5,1.1,0.6c0.4,0.1,0.8,0.2,1.2,0.1c0.4,0,0.8-0.2,1.1-0.4c0.3-0.2,0.6-0.5,0.9-0.8
				C500,138.2,500.2,137.9,500.3,137.4L500.3,137.4z"/>
			<path class="st0" d="M507.2,135.9l-1.4,6.5l-0.5-0.1l1.4-6.5l-2.4-0.5l0.1-0.5l5.4,1.1l-0.1,0.5L507.2,135.9z"/>
			<path class="st0" d="M518.4,142.1c-0.2,0.4-0.5,0.8-0.9,1.1c-0.3,0.3-0.8,0.5-1.2,0.7c-0.5,0.1-1,0.2-1.5,0.1
				c-0.5-0.1-1-0.2-1.4-0.5c-0.4-0.2-0.8-0.6-1-0.9c-0.3-0.4-0.5-0.8-0.6-1.2c-0.1-0.5-0.2-0.9-0.1-1.4l0,0c0.1-0.5,0.2-0.9,0.4-1.4
				c0.2-0.4,0.5-0.8,0.9-1.1c0.3-0.3,0.8-0.5,1.2-0.7c0.5-0.2,1-0.2,1.5-0.1c0.5,0.1,1,0.2,1.4,0.5c0.4,0.2,0.8,0.6,1,0.9
				c0.3,0.4,0.5,0.8,0.6,1.2c0.1,0.5,0.2,0.9,0.1,1.4c0,0,0,0,0,0C518.8,141.2,518.6,141.6,518.4,142.1z M518.3,140.6
				c0-0.4,0-0.9-0.1-1.3c-0.1-0.4-0.3-0.8-0.5-1.1c-0.2-0.3-0.5-0.6-0.9-0.8c-0.4-0.2-0.7-0.3-1.2-0.4c-0.4,0-0.8,0-1.2,0.1
				c-0.4,0.1-0.7,0.3-1,0.6c-0.3,0.3-0.5,0.6-0.7,0.9c-0.2,0.4-0.3,0.8-0.4,1.2l0,0c0,0.4,0,0.9,0.1,1.3c0.1,0.4,0.3,0.8,0.5,1.1
				c0.2,0.3,0.5,0.6,0.9,0.8c0.4,0.2,0.7,0.3,1.2,0.4c0.4,0,0.8,0,1.2-0.1c0.4-0.1,0.7-0.3,1-0.6c0.3-0.3,0.5-0.6,0.7-0.9
				C518.1,141.5,518.2,141.1,518.3,140.6L518.3,140.6z"/>
			<path class="st0" d="M527.6,144.2c-0.5,0.2-1,0.3-1.6,0.3c-0.6,0-1.1-0.1-1.5-0.3c-0.4-0.2-0.8-0.5-1.1-0.8
				c-0.3-0.3-0.5-0.7-0.7-1.2c-0.2-0.4-0.2-0.9-0.2-1.4v0c0-0.5,0.1-0.9,0.2-1.4c0.2-0.4,0.4-0.8,0.7-1.2c0.3-0.3,0.7-0.6,1.1-0.8
				c0.4-0.2,0.9-0.3,1.4-0.3c0.3,0,0.6,0,0.8,0.1c0.2,0,0.5,0.1,0.7,0.2c0.2,0.1,0.4,0.2,0.6,0.3c0.2,0.1,0.4,0.2,0.5,0.4l-0.3,0.4
				c-0.3-0.2-0.6-0.4-0.9-0.6c-0.4-0.2-0.8-0.2-1.3-0.2c-0.4,0-0.8,0.1-1.2,0.3c-0.4,0.2-0.7,0.4-0.9,0.7c-0.3,0.3-0.5,0.6-0.6,1
				c-0.1,0.4-0.2,0.8-0.2,1.2v0c0,0.5,0.1,0.9,0.2,1.3c0.1,0.4,0.3,0.7,0.6,1c0.3,0.3,0.6,0.5,1,0.7c0.4,0.2,0.8,0.2,1.3,0.2
				c0.2,0,0.4,0,0.7-0.1c0.2,0,0.4-0.1,0.6-0.2c0.2-0.1,0.4-0.2,0.5-0.3c0.2-0.1,0.3-0.2,0.4-0.3l0-2l-2.4,0l0-0.5l2.9,0l0,2.7
				C528.5,143.8,528.1,144,527.6,144.2z"/>
			<path class="st0" d="M538.3,143.6l-2.6-2.7l-2.3,0.3l0.3,2.9l-0.5,0.1l-0.8-7.1l3-0.3c0.4,0,0.7,0,1.1,0c0.3,0.1,0.6,0.2,0.8,0.3
				s0.4,0.3,0.6,0.6c0.1,0.2,0.2,0.5,0.3,0.8l0,0c0,0.3,0,0.6-0.1,0.8c-0.1,0.2-0.2,0.5-0.4,0.7c-0.2,0.2-0.4,0.3-0.6,0.5
				c-0.2,0.1-0.5,0.2-0.8,0.3l2.7,2.7L538.3,143.6z M537.6,138.5c-0.1-0.5-0.3-0.8-0.7-1.1c-0.4-0.2-0.9-0.3-1.5-0.2l-2.4,0.3
				l0.4,3.2l2.4-0.3c0.3,0,0.6-0.1,0.8-0.2c0.2-0.1,0.4-0.2,0.6-0.4c0.2-0.2,0.3-0.3,0.4-0.6C537.6,139,537.6,138.8,537.6,138.5
				L537.6,138.5z"/>
			<path class="st0" d="M548.7,141.5l-1.3-1.7l-4.1,0.9l-0.4,2.1l-0.5,0.1l1.6-7.7l0.5-0.1l4.8,6.2L548.7,141.5z M544.3,135.7
				l-0.9,4.4l3.6-0.8L544.3,135.7z"/>
			<path class="st0" d="M551.4,133.7l1,2.8l3.8-1.3l0.2,0.5l-3.8,1.3l1.1,3l-0.5,0.2l-2.3-6.7l4.7-1.6l0.2,0.5L551.4,133.7z"/>
			<path class="st0" d="M558.6,129.8l0.3-1.6l0.7,0l-0.6,1.4L558.6,129.8z M561.6,136.9l-2.8-6.5l0.5-0.2l2.8,6.5L561.6,136.9z"/>
			<path class="st0" d="M571.5,132l-1.7-1.3l-3.7,2l0.1,2.2l-0.5,0.3l-0.5-7.9l0.4-0.2l6.3,4.8L571.5,132z M565.7,127.6l0.3,4.5
				l3.3-1.8L565.7,127.6z"/>
		</g>
	</g>
</g>
</svg>
